<?xml version="1.0" encoding="UTF-8" standalone="no"?>
<!-- Created with Inkscape (http://www.inkscape.org/) -->

<svg
   xmlns:dc="http://purl.org/dc/elements/1.1/"
   xmlns:cc="http://creativecommons.org/ns#"
   xmlns:rdf="http://www.w3.org/1999/02/22-rdf-syntax-ns#"
   xmlns:svg="http://www.w3.org/2000/svg"
   xmlns="http://www.w3.org/2000/svg"
   xmlns:sodipodi="http://sodipodi.sourceforge.net/DTD/sodipodi-0.dtd"
   xmlns:inkscape="http://www.inkscape.org/namespaces/inkscape"
   width="130.84509mm"
   height="134.02005mm"
   viewBox="0 0 130.84509 134.02005"
   version="1.1"
   id="svg715"
   inkscape:version="0.92.4 (5da689c313, 2019-01-14)"
   sodipodi:docname="999.svg">
  <defs
     id="defs709" />
  <sodipodi:namedview
     id="base"
     pagecolor="#ffffff"
     bordercolor="#666666"
     borderopacity="1.0"
     inkscape:pageopacity="0.0"
     inkscape:pageshadow="2"
     inkscape:zoom="0.35"
     inkscape:cx="258.69489"
     inkscape:cy="130.4091"
     inkscape:document-units="mm"
     inkscape:current-layer="layer1"
     showgrid="false"
     inkscape:window-width="1920"
     inkscape:window-height="1017"
     inkscape:window-x="-8"
     inkscape:window-y="-8"
     inkscape:window-maximized="1" />
  <metadata
     id="metadata712">
    <rdf:RDF>
      <cc:Work
         rdf:about="">
        <dc:format>image/svg+xml</dc:format>
        <dc:type
           rdf:resource="http://purl.org/dc/dcmitype/StillImage" />
        <dc:title></dc:title>
      </cc:Work>
    </rdf:RDF>
  </metadata>
  <g
     inkscape:label="Layer 1"
     inkscape:groupmode="layer"
     id="layer1"
     transform="translate(-37.386977,-49.317354)">
    <g
       id="g3342"
       transform="matrix(0.09040948,0,0,0.09040948,-80.805128,81.17929)">
      <g
         id="g3034">
        <g
           id="g2165"
           transform="matrix(0.77158632,0,0,0.77158632,1307.2977,502.79845)">
          <path
             id="path2053"
             d="M 454.3,511.7 H 57.7 c -30.901,0 -52.5,-30 -42.9,-59.099 l 6.899,-20.7 h 468.6 l 6.899,20.7 C 506.8,481.7 485.2,511.7 454.3,511.7 Z"
             style="fill:#a1a7b3"
             inkscape:connector-curvature="0" />
          <path
             id="path2055"
             d="M 454.3,511.7 H 256 v -79.799 h 234.3 l 6.899,20.7 C 506.8,481.7 485.2,511.7 454.3,511.7 Z"
             style="fill:#979ca7"
             inkscape:connector-curvature="0" />
          <polygon
             id="polygon2057"
             points="346.3,300.2 358.299,336.2 392.199,353.899 348.701,421.7 163.599,421.7 119.801,353.899 153.701,336.2 165.7,300.2 "
             style="fill:#ffcf99" />
          <polygon
             id="polygon2059"
             points="256,421.7 256,300.2 346.3,300.2 358.299,336.2 392.199,353.899 348.701,421.7 "
             style="fill:#ffc380" />
          <path
             id="path2061"
             d="m 421,391.7 v 120 H 91 v -120 h 135 c 11.7,0 21.899,4.501 30,11.7 8.101,-7.2 18.3,-11.7 30,-11.7 z"
             style="fill:#c4cad9"
             inkscape:connector-curvature="0" />
          <path
             id="path2063"
             d="m 421,391.7 v 120 H 256 V 403.4 c 8.101,-7.2 18.3,-11.7 30,-11.7 z"
             style="fill:#b8bfcc"
             inkscape:connector-curvature="0" />
          <path
             id="path2065"
             d="m 361,136.7 v 60 c 0,8.401 -6.599,15 -15,15 H 166 c -8.401,0 -15,-6.599 -15,-15 v -60 c 0,-41.4 33.6,-76 75,-76 h 60 c 41.4,0 75,34.6 75,76 z"
             style="fill:#a1a7b3"
             inkscape:connector-curvature="0" />
          <path
             id="path2067"
             d="m 361,136.7 v 60 c 0,8.401 -6.599,15 -15,15 h -90 v -151 h 30 c 41.4,0 75,34.6 75,76 z"
             style="fill:#979ca7"
             inkscape:connector-curvature="0" />
          <path
             id="path2069"
             d="M 360.7,265.399 C 356.201,319.401 310.3,361.7 256,361.7 c -54.3,0 -100.201,-42.299 -104.7,-96.301 -0.601,-8.099 5.4,-15.298 13.799,-16.199 h 181.802 c 8.399,0.901 14.399,8.1 13.799,16.199 z"
             style="fill:#a1a7b3"
             inkscape:connector-curvature="0" />
          <path
             id="path2071"
             d="M 360.7,265.399 C 356.201,319.401 310.3,361.7 256,361.7 V 249.2 h 90.901 c 8.399,0.901 14.399,8.1 13.799,16.199 z"
             style="fill:#979ca7"
             inkscape:connector-curvature="0" />
          <path
             id="path2073"
             d="m 376,181.7 h -60 c -25.8,0 -48.6,-24.901 -48.9,-24.901 -2.999,-3.3 -6.899,-5.099 -11.1,-5.099 -4.201,0 -8.101,1.8 -11.1,5.099 -0.3,0 -23.101,24.901 -48.9,24.901 h -60 c -8.401,0 -15,6.599 -15,15 v 60 c 0,6.899 4.799,12.9 11.4,14.399 l 48.6,12.301 60,15 11.4,2.699 c 1.199,0.601 2.401,0.601 3.6,0.601 1.199,0 2.401,0 3.6,-0.601 l 11.4,-2.699 60,-15 48.6,-12.301 c 6.601,-1.5 11.4,-7.5 11.4,-14.399 v -60 c 0,-8.401 -6.599,-15 -15,-15 z"
             style="fill:#c4cad9"
             inkscape:connector-curvature="0" />
          <path
             id="path2075"
             d="m 391,196.7 v 60 c 0,6.899 -4.799,12.9 -11.4,14.399 L 331,283.4 l -60,15 -11.4,2.699 c -1.199,0.601 -2.401,0.601 -3.6,0.601 v -150 c 4.2,0 8.101,1.8 11.1,5.099 0.3,0 23.101,24.901 48.9,24.901 h 60 c 8.401,0 15,6.599 15,15 z"
             style="fill:#b8bfcc"
             inkscape:connector-curvature="0" />
          <path
             id="path2077"
             d="M 105,451.7 H 15 c -8.291,0 -15,-6.709 -15,-15 0,-57.891 47.109,-105 105,-105 24.814,0 45,20.186 45,45 v 30 c 0,24.814 -20.186,45 -45,45 z"
             style="fill:#e6eeff"
             inkscape:connector-curvature="0" />
          <path
             id="path2079"
             d="m 497,451.7 h -90 c -24.814,0 -45,-20.186 -45,-45 v -30 c 0,-24.814 20.186,-45 45,-45 57.891,0 105,47.109 105,105 0,8.291 -6.709,15 -15,15 z"
             style="fill:#dae2f2"
             inkscape:connector-curvature="0" />
          <path
             id="path2081"
             d="m 271,226.7 v 71.7 l -11.4,2.699 c -1.199,0.601 -2.401,0.601 -3.6,0.601 -1.199,0 -2.401,0 -3.6,-0.601 L 241,298.4 v -71.7 c 0,-8.401 6.599,-15 15,-15 8.401,0 15,6.599 15,15 z"
             style="fill:#5c5f66"
             inkscape:connector-curvature="0" />
          <path
             id="path2083"
             d="m 331,241.7 v 41.7 l -30,7.5 v -49.2 c 0,-8.401 6.599,-15 15,-15 8.401,0 15,6.599 15,15 z"
             style="fill:#53565c"
             inkscape:connector-curvature="0" />
          <path
             id="path2085"
             d="m 211,241.7 v 49.2 l -30,-7.5 v -41.7 c 0,-8.401 6.599,-15 15,-15 8.401,0 15,6.599 15,15 z"
             style="fill:#5c5f66"
             inkscape:connector-curvature="0" />
          <path
             id="path2087"
             d="m 271,226.7 v 71.7 l -11.4,2.699 c -1.199,0.601 -2.401,0.601 -3.6,0.601 v -90 c 8.401,0 15,6.599 15,15 z"
             style="fill:#53565c"
             inkscape:connector-curvature="0" />
          <path
             id="path2089"
             d="m 299.5,69.101 -30,-61 C 266.8,2.999 261.4,0.3 256,0.3 c -5.4,0 -10.8,2.699 -13.5,7.8 l -30,61 c -2.699,5.698 -1.8,12.599 3.001,17.098 l 30,30 C 248.2,119.2 252.1,120.7 256,120.7 c 3.9,0 7.8,-1.5 10.499,-4.501 l 30,-30 c 4.801,-4.499 5.7,-11.4 3.001,-17.098 z"
             style="fill:#e6eeff"
             inkscape:connector-curvature="0" />
          <path
             id="path2091"
             d="m 296.499,86.199 -30,30 C 263.8,119.2 259.9,120.7 256,120.7 V 0.3 c 5.4,0 10.8,2.699 13.5,7.8 l 30,61 c 2.699,5.699 1.8,12.6 -3.001,17.099 z"
             style="fill:#dae2f2"
             inkscape:connector-curvature="0" />
          <g
             id="g2093" />
          <g
             id="g2095" />
          <g
             id="g2097" />
          <g
             id="g2099" />
          <g
             id="g2101" />
          <g
             id="g2103" />
          <g
             id="g2105" />
          <g
             id="g2107" />
          <g
             id="g2109" />
          <g
             id="g2111" />
          <g
             id="g2113" />
          <g
             id="g2115" />
          <g
             id="g2117" />
          <g
             id="g2119" />
          <g
             id="g2121" />
        </g>
      </g>
      <g
         transform="translate(-2.3386084,44.433559)"
         id="g3114">
        <path
           style="fill:#de3c44;stroke-width:0.96001166"
           inkscape:connector-curvature="0"
           d="m 2296.0039,-248.77694 h -0.029 c -8.6497,0 -22.4835,1.69922 -33.994,10.87693 -10.6465,8.5057 -16.8962,21.42746 -18.5858,38.46767 a 89.157246,89.157246 0 0 0 -33.2932,12.22095 c -17.1554,10.47373 -39.0821,31.90119 -47.895,74.78491 a 127.48475,127.48475 0 0 0 -29.818,-1.34402 c -25.6899,1.92963 -46.4166,12.10575 -59.9431,29.453161 a 4.6675768,4.6675768 0 0 0 -1.0752,3.744045 4.4467741,4.4467741 0 0 0 2.0448,3.100838 c 1.1136,1.027212 16.2146,16.300998 15.4946,85.8442452 a 4.519735,4.519735 0 0 0 0.029,0.5088062 59.239441,59.239441 0 0 0 5.9521,19.2866346 c 6.768,13.401763 17.8082,22.205071 31.9875,25.47871 1.4593,0.307204 32.0836,6.55688 53.9719,-9.398514 l 0.288,0.403205 -2.4,1.718421 a 3.2640397,3.2640397 0 0 0 -0.288,0.220803 c -31.0084,25.958716 -70.7433,8.505703 -73.9497,7.027285 -32.9572,-21.091457 -43.1814,-65.098393 -44.4774,-71.319268 l 1.5937,-10.262525 a 4.8000585,4.8000585 0 1 0 -9.485,-1.468818 l -5.7888,37.2676536 -11.6834,-0.3072037 a 18.252702,18.252702 0 0 0 -18.0386,13.5745651 l -2.112,-0.576007 v -8.467303 a 8.4893834,8.4893834 0 0 1 7.2385,-8.4385027 l 11.0785,-1.6992207 a 4.8096586,4.8096586 0 0 0 4.0705,-4.7520578 20.448249,20.448249 0 0 0 -12.413,-18.8162288 l -0.3456,-0.144002 a 10.927813,10.927813 0 0 1 -6.4993,-8.611305 l -1.3152,-10.204924 a 10.909573,10.909573 0 0 1 8.6497,-12.038547 l 16.4642,-3.29284 a 10.878852,10.878852 0 0 1 9.6097,2.764834 l 10.4642,9.91692 a 4.8010664,4.8010664 0 0 0 6.6048,-6.969684 l -10.4641,-9.916921 a 20.483769,20.483769 0 0 0 -18.0962,-5.212864 l -16.4642,3.29284 c -0.4032,-0.288003 -0.8448,-0.595207 -1.3152,-0.921611 -3.4849,-2.44803 -8.7457,-6.144075 -15.5906,-10.512128 -15.5714,-9.974521 -22.8771,-30.144362 -26.1507,-43.699732 a 68.795398,68.795398 0 0 1 6.288,5.49127 4.8000585,4.8000585 0 1 0 6.7297,-6.84489 c -33.3508,-32.8036 -77.6553,-22.42587 -79.5274,-21.96506 a 4.8000585,4.8000585 0 0 0 2.2753,9.32171 c 0.077,-0.0192 1.6896,-0.384 4.4352,-0.75841 -4.8672,9.86892 -15.8786,14.17937 -15.9938,14.22737 a 4.765498,4.765498 0 0 0 -2.3712,1.92003 l -6.0865,9.56171 -9.6001,-1.74722 a 0.77376942,0.77376942 0 0 1 -0.6336,-0.77761 l 1.0848,-29.20355 c 0.1152,-1.59362 2.8225,-35.52044 20.1603,-51.77343 a 63.571014,63.571014 0 0 1 -0.144,12.79695 33.312406,33.312406 0 0 0 -9.2641,12.72016 51.422066,51.422066 0 0 0 -3.9841,18.49942 4.7914183,4.7914183 0 0 0 4.7905,4.79046 h 0.01 a 4.8096586,4.8096586 0 0 0 4.8,-4.78086 c 0,-1.03681 0.3264,-22.88668 17.1746,-27.53313 -2.112,6.53768 -5.0496,14.92818 -7.2385,18.76823 a 4.8000585,4.8000585 0 1 0 8.3329,4.76165 87.05098,87.05098 0 0 0 5.2705,-12.40335 73.978501,73.978501 0 0 1 19.8723,1.99683 c 32.8131,7.63209 49.9974,18.34582 50.1606,18.45142 a 4.844219,4.844219 0 0 0 3.5808,0.64321 c 0.2208,-0.048 22.2819,-4.65606 44.0453,0 12.0194,2.57283 18.8931,-10.83853 24.9603,-22.66588 2.7937,-5.45286 5.6833,-11.09773 8.5057,-14.00657 52.7527,-54.43266 68.8905,-89.52109 72.7017,-110.11334 9.0529,-1.51682 35.6933,-5.31846 64.1384,-3.09124 41.7893,3.26404 69.1593,17.43382 81.4954,42.13492 z"
           id="path95" />
        <g
           style="fill:#ad2a34"
           id="g123"
           transform="matrix(0.96001169,0,0,0.96001169,1827.3262,-408.74369)">
          <path
             inkscape:connector-curvature="0"
             d="m 173.978,304.7 a 4.986,4.986 0 0 0 6.652,-7.417 c -34.74,-34.17 -80.89,-23.36 -82.84,-22.88 a 5,5 0 0 0 -3.755,4.181 c 12.458,-1.991 49.52,-4.9 78.6,23.7 a 4.936,4.936 0 0 1 1.343,2.416 z"
             id="path97" />
          <path
             inkscape:connector-curvature="0"
             d="m 69.31,308.28 a 0.806,0.806 0 0 1 -0.66,-0.81 l 1.13,-30.42 c 0,-0.032 0.008,-0.1 0.012,-0.158 a 4.949,4.949 0 0 1 -0.962,-2.922 53.564,53.564 0 0 1 4.15,-19.27 41.457,41.457 0 0 1 2.156,-4.271 80.5,80.5 0 0 1 7.883,-17.629 c -0.039,-1.63 -0.126,-3.216 -0.239,-4.684 -18.06,16.93 -20.88,52.27 -21,53.93 l -1.13,30.42 a 0.806,0.806 0 0 0 0.66,0.81 l 10,1.82 3.683,-5.786 z"
             id="path99" />
          <path
             inkscape:connector-curvature="0"
             d="m 88.12,298.14 a 4.964,4.964 0 0 0 -2.47,2 l -0.056,0.088 a 37.775,37.775 0 0 0 3.429,-2.48 C 88.47,298 88.14,298.132 88.12,298.14 Z"
             id="path101" />
          <path
             inkscape:connector-curvature="0"
             d="m 350.169,302.741 a 132.772,132.772 0 0 0 -24.4,-0.481 c -18.4,1.382 -34.353,6.825 -47.107,15.964 11.212,-6.131 24.37,-9.857 39.107,-10.964 a 132.795,132.795 0 0 1 31.06,1.4 c 0.417,-2.024 0.871,-3.986 1.34,-5.919 z"
             id="path103" />
          <path
             inkscape:connector-curvature="0"
             d="m 259.91,250.25 c 2.91,-5.68 5.92,-11.56 8.86,-14.59 51.746,-53.394 69.665,-88.914 74.9,-110.788 -2.964,0.409 -5.39,0.791 -7.165,1.088 -3.97,21.45 -20.78,58 -75.73,114.7 -2.94,3.03 -5.95,8.91 -8.86,14.59 -3.416,6.66 -7.08,13.8 -11.7,18.53 8.778,-2.251 14.519,-13.441 19.695,-23.53 z"
             id="path105" />
          <path
             inkscape:connector-curvature="0"
             d="m 78.862,272.969 a 4.949,4.949 0 0 0 2.958,0.991 h 0.01 a 5.01,5.01 0 0 0 5,-4.98 c 0,-0.841 0.209,-14.836 8.6,-23.27 -14.53,4.981 -16.347,22.758 -16.568,27.259 z"
             id="path107" />
          <path
             inkscape:connector-curvature="0"
             d="m 296.72,476.62 c -34.33,-21.97 -44.98,-67.81 -46.33,-74.29 l 1.66,-10.69 a 5,5 0 1 0 -9.88,-1.53 l -0.255,1.644 a 5,5 0 0 1 2.135,4.886 l -1.66,10.69 c 1.35,6.48 12,52.32 46.33,74.29 3.232,1.49 42.086,18.557 73.862,-4.833 -29.956,15.672 -62.897,1.2 -65.862,-0.167 z"
             id="path109" />
          <path
             inkscape:connector-curvature="0"
             d="m 203.92,361.12 10.916,-2.183 c -0.42,-0.3 -3.8,-3.437 -4.286,-3.777 -3.63,-2.55 -9.11,-6.4 -16.24,-10.95 -12.068,-7.73 -19.367,-21.338 -23.719,-33.614 a 4.871,4.871 0 0 1 -4.971,-1.186 71.661,71.661 0 0 0 -6.55,-5.72 c 3.41,14.12 11.02,35.13 27.24,45.52 7.13,4.55 12.61,8.4 16.24,10.95 0.49,0.34 0.95,0.66 1.37,0.96 z"
             id="path111" />
          <path
             inkscape:connector-curvature="0"
             d="m 461.3,172.554 a 61.2,61.2 0 0 1 26.868,-5.924 h 0.03 c -0.72,-1.442 -1.5,-2.844 -2.315,-4.217 A 53.1,53.1 0 0 0 461.3,172.554 Z"
             id="path113" />
          <path
             inkscape:connector-curvature="0"
             d="m 406.72,225.76 c -1.554,0.949 -3.148,1.99 -4.766,3.119 A 92.377,92.377 0 0 1 433.4,218.03 c 0.119,-1.2 0.264,-2.376 0.426,-3.536 A 94.981,94.981 0 0 0 406.72,225.76 Z"
             id="path115" />
          <path
             inkscape:connector-curvature="0"
             d="m 222.06,422.77 a 5.01,5.01 0 0 0 4.24,-4.95 21.3,21.3 0 0 0 -12.93,-19.6 l -0.36,-0.15 a 11.383,11.383 0 0 1 -6.77,-8.97 l -1.37,-10.63 a 11.272,11.272 0 0 1 1.833,-7.7 l -0.823,0.164 a 11.364,11.364 0 0 0 -9.01,12.54 l 1.37,10.63 a 11.383,11.383 0 0 0 6.77,8.97 l 0.36,0.15 a 21.3,21.3 0 0 1 12.93,19.6 4.709,4.709 0 0 1 -0.049,0.534 z"
             id="path117" />
          <path
             inkscape:connector-curvature="0"
             d="m 223.97,428.61 a 18.929,18.929 0 0 0 -14.164,5.879 18.494,18.494 0 0 1 6.164,-0.879 l 12.17,0.32 0.806,-5.189 z"
             id="path119" />
          <path
             inkscape:connector-curvature="0"
             d="m 202.98,433.33 a 8.919,8.919 0 0 1 0.945,-4 l -1.405,0.215 a 8.843,8.843 0 0 0 -7.54,8.79 v 8.82 l 2.2,0.6 a 18.827,18.827 0 0 1 5.8,-9.384 z"
             id="path121" />
        </g>
        <path
           style="fill:#f4c161;stroke-width:0.96001166"
           inkscape:connector-curvature="0"
           d="m 2211.4461,-5.6155811 -0.4608,9.9265208 A 38.824793,38.824793 0 0 1 2199.0235,30.63446 l -5.0784,4.87686 -12.8066,9.139311 -0.288,-0.403205 a 46.453046,46.453046 0 0 0 7.8817,-7.257688 4.8720593,4.8720593 0 0 0 1.1424,-2.678433 l 0.7008,-7.286489 A 38.918874,38.918874 0 0 1 2203.142,1.9397109 Z"
           id="path125" />
        <path
           style="fill:#0f3047;stroke-width:0.96001166"
           inkscape:connector-curvature="0"
           d="m 2307.9906,-245.0953 a 4.8000585,4.8000585 0 0 1 -5.3175,6.36392 c -0.192,-0.0288 -20.3321,-3.19588 -34.7697,8.3905 -9.2257,7.39209 -14.3522,19.35288 -15.2546,35.53772 a 4.8000585,4.8000585 0 0 1 -4.6167,4.53125 c -0.144,0 -16.012,0.78721 -33.3393,11.50958 -23.1833,14.34162 -37.9761,38.83055 -43.9474,72.79385 a 4.8000585,4.8000585 0 0 1 -5.8647,3.82948 115.0238,115.0238 0 0 0 -32.0442,-2.03426 c -21.512,1.65986 -38.388,9.282352 -50.2442,22.656275 5.8945,7.929696 16.5017,30.468851 15.9266,89.6986919 0.3447,2.9376361 4.2241,30.0272461 30.4401,36.0849191 0.2592,0.048 33.5121,6.757523 51.5017,-12.459991 l 0.5568,-5.71207 a 48.44219,48.44219 0 0 1 15.6569,-31.2656607 l 16.8568,-15.3438673 a 4.8000585,4.8000585 0 0 1 8.0248,3.771886 l -0.9985,21.4937021 a 48.327948,48.327948 0 0 1 -14.8907,32.7939989 l -5.3367,5.116863 a 3.9878886,3.9878886 0 0 1 -0.5376,0.441605 l -15.3314,10.962374 c -15.1576,12.613593 -31.7265,16.405639 -46.1449,16.42484 q -5.4864,0.384004 -10.6071,0.393604 c -36.1234,0 -58.3083,-13.775207 -70.9027,-26.033597 a 86.042008,86.042008 0 0 1 -8.4673,-9.561716 l -0.72,2.342428 a 4.8115786,4.8115786 0 0 1 -4.5879,3.379242 4.8758994,4.8758994 0 0 1 -1.9392,-0.403205 l -10.3201,-4.560056 a 4.8058185,4.8058185 0 0 1 -2.8407,-4.837499 l 1.1712,-12.403351 a 8.4788232,8.4788232 0 0 0 -3.216,4.800059 l -1.1232,4.569655 a 4.8000585,4.8000585 0 0 1 -2.2273,2.995237 4.8701393,4.8701393 0 0 1 -2.4384,0.662408 4.8000585,4.8000585 0 0 1 -1.2672,-0.172802 l -10.396,-2.860835 a 4.8000585,4.8000585 0 0 1 -3.5232,-4.627256 V 12.048634 a 18.006939,18.006939 0 0 1 8.8119,-15.5608295 5.5459875,5.5459875 0 0 0 -5.1063,-3.3696411 15.062583,15.062583 0 0 1 -11.8849,-5.7600704 l -7.2961,-9.234352 a 15.103864,15.103864 0 0 1 -2.4288,-14.351215 l 10.8759,-31.392382 c -9.0327,-6.795923 -16.348,-16.972047 -21.7807,-30.315249 a 126.68794,126.68794 0 0 1 -7.3057,-26.400325 c -13.7656,-6.99848 -27.8192,-8.5153 -37.9857,-8.3809 -4.1655,14.21681 -17.0882,21.2345 -21.6368,23.30812 l -7.0148,11.036299 a 4.8058185,4.8058185 0 0 1 -4.0512,2.227227 5.2330237,5.2330237 0 0 1 -0.8544,-0.0768 l -12.7768,-2.323229 a 10.317246,10.317246 0 0 1 -8.5144,-10.472767 l 0.01,-0.288 1.0829,-29.09892 c 0,-0.048 0.01,-0.0864 0.01,-0.1344 0.1248,-1.95842 3.4359,-48.25787 31.1313,-64.1355 a 4.8048585,4.8048585 0 0 1 7.1127,3.32164 100.64955,100.64955 0 0 1 1.3344,17.09685 35.416751,35.416751 0 0 1 10.3201,-1.45922 4.8000585,4.8000585 0 0 1 4.6081,6.14407 c -0.077,0.26881 -0.7584,2.57284 -1.776,5.79848 a 85.479441,85.479441 0 0 1 18.8056,2.29346 c 0.4416,0.1056 0.864,0.21121 1.3057,0.31681 a 279.94997,279.94997 0 0 0 -22.52,-48.26651 c -15.6962,-26.6576 -43.1045,-62.36812 -84.553,-81.04899 a 4.7789382,4.7789382 0 0 1 -2.6593,-3.12004 c -0.3456,-1.27681 -8.2849,-31.56326 7.4968,-58.94471 10.1195,-17.53558 27.5331,-29.69892 51.7619,-36.14924 a 4.8077385,4.8077385 0 0 1 5.568,6.72008 c -0.2976,0.61441 -7.2096,15.70483 1.1617,31.25702 8.7639,16.28948 31.8128,27.56865 66.6689,32.62792 a 4.8000585,4.8000585 0 0 1 4.0129,5.70151 c -0.029,0.1536 -3.1297,16.28083 1.4688,37.17933 6.1239,27.80962 22.3088,50.52253 48.1129,67.51378 a 4.7942984,4.7942984 0 0 1 1.0944,7.03689 c -0.8448,1.04641 -19.6217,25.02558 -7.1713,55.95524 a 113.86507,113.86507 0 0 1 25.8599,2.27523 c 4.8183,1.02721 10.1367,-9.33036 14.4088,-17.65366 3.2544,-6.36392 6.3361,-12.37359 10.1559,-16.30964 56.8875,-58.70087 68.6658,-92.96177 70.6147,-108.1578 a 4.7933384,4.7933384 0 0 1 3.8208,-4.08964 282.54488,282.54488 0 0 1 69.8466,-3.85925 c 49.0653,3.79204 81.2045,22.95292 92.9349,55.39939 z m -12.028,-3.67684 h 0.029 c -12.3352,-24.70014 -39.7041,-38.86896 -81.4906,-42.13204 -28.4442,-2.22722 -55.0826,1.57346 -64.1355,3.09028 -3.8103,20.59129 -19.9471,55.68068 -72.6969,110.10758 -2.8224,2.90884 -5.712,8.55275 -8.5057,14.00561 -6.0663,11.82639 -12.94,25.23775 -24.9603,22.66492 -21.7625,-4.65606 -43.8226,-0.048 -44.0434,0 a 4.844219,4.844219 0 0 1 -3.5808,-0.64321 c -0.1623,-0.1056 -17.3455,-10.81933 -50.1577,-18.45046 a 73.965061,73.965061 0 0 0 -19.8723,-1.99683 87.0337,87.0337 0 0 1 -5.2705,12.40239 4.8000585,4.8000585 0 0 1 -8.3329,-4.76069 c 2.1889,-3.84005 5.1265,-12.23055 7.2385,-18.76727 -16.8434,4.64549 -17.1698,26.49536 -17.1698,27.53121 a 4.8096586,4.8096586 0 0 1 -4.8,4.78086 h -0.01 a 4.7904583,4.7904583 0 0 1 -4.7895,-4.79046 51.429746,51.429746 0 0 1 3.9831,-18.49846 33.306646,33.306646 0 0 1 9.2641,-12.7192 63.562374,63.562374 0 0 0 0.144,-12.79599 c -17.3369,16.25203 -20.0441,50.17693 -20.1603,51.77055 l -1.0848,29.20163 a 0.77376942,0.77376942 0 0 0 0.6336,0.77761 l 9.6001,1.74722 6.0865,-9.56171 a 4.765498,4.765498 0 0 1 2.3712,-1.92003 c 0.1152,-0.048 11.1256,-4.35749 15.9929,-14.22641 -2.7457,0.3744 -4.3585,0.73921 -4.4353,0.75841 a 4.8000585,4.8000585 0 0 1 -2.2743,-9.31979 c 1.8721,-0.46081 46.1766,-10.83854 79.5236,21.96314 a 4.8000585,4.8000585 0 0 1 -6.7297,6.84489 68.795398,68.795398 0 0 0 -6.2881,-5.49127 c 3.2737,13.55537 10.5793,33.723291 26.1498,43.697812 6.8449,4.367093 12.1048,8.064098 15.5896,10.511168 0.4704,0.326404 0.912,0.633608 1.3152,0.921611 l 16.4633,-3.29284 a 20.481849,20.481849 0 0 1 18.0952,5.212864 l 10.4642,9.915961 a 4.8007632,4.8007632 0 0 1 -6.604,6.969684 l -10.4641,-9.91596 a 10.876932,10.876932 0 0 0 -9.6088,-2.764834 l -16.4632,3.29284 a 10.907653,10.907653 0 0 0 -8.6497,12.037587 l 1.3152,10.203964 a 10.927813,10.927813 0 0 0 6.4993,8.611305 l 0.3456,0.144002 a 20.448249,20.448249 0 0 1 12.412,18.8162287 4.8096586,4.8096586 0 0 1 -4.0705,4.7510978 l -11.0775,1.6992207 a 8.4893834,8.4893834 0 0 0 -7.2385,8.4385028 v 8.466343 l 2.112,0.576007 a 18.252702,18.252702 0 0 1 18.0357,-13.5755252 l 11.6834,0.3072037 5.7879,-37.2657335 a 4.8000585,4.8000585 0 1 1 9.4849,1.468818 l -1.5936,10.261565 c 1.296,6.220875 11.5201,50.225891 44.4745,71.315428 3.2064,1.478418 42.9394,18.930471 73.9458,-7.026326 a 3.2640397,3.2640397 0 0 1 0.288,-0.220802 l 2.4,-1.718421 12.8056,-9.139311 5.0785,-4.8759 a 38.825753,38.825753 0 0 0 11.9608,-26.3225604 l 0.4608,-9.9255608 -8.3041,7.5543319 a 38.919834,38.919834 0 0 0 -12.5656,25.0841453 l -0.7008,7.285529 a 4.8720593,4.8720593 0 0 1 -1.1424,2.678433 46.484726,46.484726 0 0 1 -7.8808,7.257688 c -21.8882,15.954434 -52.5126,9.704758 -53.9689,9.397554 -14.1784,-3.27364 -25.2186,-12.075987 -31.9857,-25.47679 a 59.237521,59.237521 0 0 1 -5.9521,-19.2856747 4.519735,4.519735 0 0 1 -0.029,-0.5088062 c 0.72,-69.5394071 -14.38,-84.8122331 -15.4936,-85.8394451 a 4.4467741,4.4467741 0 0 1 -2.0448,-3.100838 4.6675768,4.6675768 0 0 1 1.0752,-3.744046 c 13.5256,-17.34645 34.2513,-27.52161 59.9402,-29.45124 a 127.47035,127.47035 0 0 1 29.8161,1.34402 c 8.8119,-42.88084 30.7376,-64.30734 47.8921,-74.78491 a 89.157246,89.157246 0 0 1 33.2913,-12.21999 c 1.6896,-17.03925 7.9393,-29.96005 18.5848,-38.46575 11.5096,-9.17291 25.3424,-10.87213 33.9921,-10.87213 z M 2063.8548,38.303034 a 77.802227,77.802227 0 0 0 26.3504,16.655242 c -17.692,-14.896501 -27.9728,-35.201708 -33.6368,-50.4073333 l -1.3825,8.9281083 a 4.8250188,4.8250188 0 0 1 -4.8672,4.05989 l -1.7664,-0.048 a 75.59036,75.59036 0 0 0 15.3025,20.812094 z m -23.8082,-8.658346 1.488,-4.819258 c -1.1712,-2.131226 -2.1025,-4.05125 -2.8225,-5.67367 l -0.8928,9.513716 z m -17.0777,-35.9313173 3.5712,-0.5472067 a 10.835652,10.835652 0 0 0 -5.8272,-5.990473 l -0.3552,-0.153602 a 20.53177,20.53177 0 0 1 -12.2392,-16.213637 l -1.3056,-10.203964 a 20.468409,20.468409 0 0 1 6.5856,-17.749657 c -2.0448,-1.420817 -4.4832,-3.091237 -7.2672,-4.94406 l -10.0494,28.998113 a 5.5296673,5.5296673 0 0 0 0.8918,5.260864 l 7.2865,9.235313 a 5.5287073,5.5287073 0 0 0 4.3584,2.112026 15.120184,15.120184 0 0 1 13.9865,9.3121129 z M 2010.2891,-152.14313 c -9.5809,-27.14721 1.1712,-49.32252 6.8055,-58.29767 -31.9569,-22.63611 -43.8889,-50.98334 -48.2569,-71.14262 a 114.95084,114.95084 0 0 1 -2.112,-35.72972 c -35.9314,-5.94247 -59.1713,-18.37366 -69.0978,-37.00653 a 45.260711,45.260711 0 0 1 -4.2039,-30.47845 c -17.2601,6.12488 -29.8362,15.87763 -37.429,29.04708 -11.5969,20.11128 -8.4001,42.64179 -7.0273,49.5366 24.0858,11.32814 57.9723,35.02891 86.8283,84.14982 16.4344,27.98338 23.9417,51.68415 25.1705,55.7834 2.0055,0.56641 3.9159,1.14242 5.7688,1.71842 -2.7361,-8.26474 -8.8408,-26.3312 -13.276,-36.60332 a 4.8008576,4.8008576 0 0 1 8.8129,-3.81125 c 6.0375,13.97777 14.6584,40.69298 15.0232,41.82579 a 4.7222975,4.7222975 0 0 1 0.1536,2.21763 153.90427,153.90427 0 0 1 22.5967,10.1454 c 2.0449,-0.36576 5.6353,-0.92257 10.2434,-1.35458 z"
           id="path127" />
        <path
           style="fill:#f4c161;stroke-width:0.96001166"
           inkscape:connector-curvature="0"
           d="M 2090.2062,54.970757 A 77.812788,77.812788 0 0 1 2063.8539,38.314554 75.605721,75.605721 0 0 1 2048.5513,17.5015 l 1.7664,0.048 a 4.8250188,4.8250188 0 0 0 4.8673,-4.06085 l 1.3824,-8.9281082 c 5.6641,15.2065852 15.9458,35.5108322 33.6388,50.4102142 z"
           id="path129" />
        <path
           style="fill:#f4c161;stroke-width:0.96001166"
           inkscape:connector-curvature="0"
           d="m 2026.5382,-6.8251959 -3.5712,0.5472067 -0.3648,-0.8832108 a 15.121144,15.121144 0 0 0 -13.9874,-9.312113 5.5267873,5.5267873 0 0 1 -4.3584,-2.112026 l -7.2865,-9.235313 a 5.5277473,5.5277473 0 0 1 -0.8928,-5.260864 l 10.0513,-29.001953 c 2.784,1.852823 5.2224,3.523243 7.2673,4.94406 a 20.470329,20.470329 0 0 0 -6.5857,17.750617 l 1.3056,10.204924 a 20.53369,20.53369 0 0 0 12.2402,16.214597 l 0.3552,0.153602 a 10.835652,10.835652 0 0 1 5.8272,5.9904731 z"
           id="path131" />
        <path
           style="fill:#c92b32;stroke-width:0.96001166"
           inkscape:connector-curvature="0"
           d="m 2017.0917,-210.44368 c -5.6353,8.97611 -16.3874,31.15238 -6.8065,58.30151 -4.608,0.43201 -8.1985,0.98882 -10.2433,1.35362 a 153.87739,153.87739 0 0 0 -22.5987,-10.14732 4.7222975,4.7222975 0 0 0 -0.1536,-2.21763 c -0.3648,-1.13281 -8.9857,-27.84994 -15.0242,-41.82771 a 4.8008576,4.8008576 0 0 0 -8.8129,3.81125 c 4.4353,10.27212 10.541,28.33954 13.277,36.60524 -1.8528,-0.576 -3.7632,-1.15201 -5.7697,-1.71842 -1.2288,-4.09925 -8.7361,-27.80194 -25.1715,-55.78628 -28.8579,-49.1238 -62.7463,-72.82648 -86.833,-84.15462 -1.3729,-6.89289 -4.5697,-29.42436 7.0272,-49.5366 7.5937,-13.17137 20.1699,-22.92508 37.4309,-29.04996 a 45.261671,45.261671 0 0 0 4.2049,30.48037 c 9.9265,18.63383 33.1684,31.06598 69.1016,37.00845 a 114.96332,114.96332 0 0 0 2.112,35.73164 c 4.3681,20.16024 16.301,48.50939 48.2598,71.14646 z"
           id="path133" />
        <path
           style="fill:#0f3047;stroke-width:0.96001166"
           inkscape:connector-curvature="0"
           d="m 2161.7386,-281.73414 a 4.7904583,4.7904583 0 0 0 -5.3761,4.14821 c -4.5523,35.41099 -46.1996,82.96901 -70.6204,108.16643 a 4.8002822,4.8002822 0 0 0 6.8939,6.68169 c 55.8813,-57.65735 70.678,-93.61266 73.2489,-113.62315 a 4.8000585,4.8000585 0 0 0 -4.1463,-5.37318 z"
           id="path135" />
        <path
           style="fill:#0f3047;stroke-width:0.96001166"
           inkscape:connector-curvature="0"
           d="m 2173.2271,-261.7563 a 4.8001813,4.8001813 0 1 0 -1.562,9.47244 c 45.2358,7.46313 54.8877,44.77206 55.2775,46.35704 a 4.8000585,4.8000585 0 0 0 9.3323,-2.24931 c -0.4397,-1.83554 -11.3637,-45.05335 -63.0478,-53.58017 z"
           id="path137" />
        <path
           style="fill:#0f3047;stroke-width:0.96001166"
           inkscape:connector-curvature="0"
           d="m 2150.4489,-210.4408 a 4.8000585,4.8000585 0 0 0 -2.4481,6.33128 c 14.0959,31.87239 -0.022,75.38396 -0.167,75.81981 a 4.800552,4.800552 0 0 0 9.1124,3.02403 c 0.6375,-1.92002 15.4456,-47.43034 -0.1661,-82.72709 a 4.8000585,4.8000585 0 0 0 -6.3312,-2.44803 z"
           id="path139" />
        <path
           style="fill:#0f3047;stroke-width:0.96001166"
           inkscape:connector-curvature="0"
           d="m 1877.3562,-353.64766 c -19.2434,19.20887 -9.625,44.84119 -9.2074,45.92216 a 4.8007199,4.8007199 0 0 0 8.9578,-3.45604 c -0.3206,-0.84865 -7.7213,-20.95034 7.0321,-35.675 a 4.800359,4.800359 0 1 0 -6.7825,-6.79496 z"
           id="path141" />
        <path
           style="fill:#0f3047;stroke-width:0.96001166"
           inkscape:connector-curvature="0"
           d="m 1956.4171,-298.97307 a 4.8000585,4.8000585 0 0 0 -1.9882,-6.49064 c -1.4199,-0.75457 -35.0837,-18.36119 -62.1128,-8.50475 a 4.8000585,4.8000585 0 0 0 3.2871,9.01931 c 22.9529,-8.3665 53.9018,7.73962 54.328,7.9681 a 4.8000585,4.8000585 0 0 0 6.4907,-1.98722 z"
           id="path143" />
        <path
           style="fill:#0f3047;stroke-width:0.96001166"
           inkscape:connector-curvature="0"
           d="m 2196.7061,-104.18766 a 155.35485,155.35485 0 0 0 -6.6097,25.360627 4.8000585,4.8000585 0 0 0 3.8957,5.559428 4.8787794,4.8787794 0 0 0 0.8381,0.07296 4.8000585,4.8000585 0 0 0 4.7213,-3.968688 145.66641,145.66641 0 0 1 6.1921,-23.788127 4.8000585,4.8000585 0 1 0 -9.0375,-3.2362 z"
           id="path145" />
        <path
           style="fill:#0f3047;stroke-width:0.96001166"
           inkscape:connector-curvature="0"
           d="m 2213.3133,-135.26228 c -1.4314,1.86914 -2.8282,3.83333 -4.1511,5.83687 a 4.8000585,4.8000585 0 1 0 8.0103,5.29063 c 1.201,-1.81827 2.4663,-3.59813 3.7633,-5.29063 a 4.800301,4.800301 0 1 0 -7.6225,-5.83687 z"
           id="path147" />
        <path
           style="fill:#0f3047;stroke-width:0.96001166"
           inkscape:connector-curvature="0"
           d="m 2232.8294,-142.11004 a 82.265322,82.265322 0 0 1 28.2637,-16.0514 65.353756,65.353756 0 0 1 15.7643,-3.31684 4.8009628,4.8009628 0 0 0 -0.1862,-9.60012 c -0.059,0 -0.119,0 -0.1795,0 a 73.286332,73.286332 0 0 0 -18.3929,3.78821 91.848158,91.848158 0 0 0 -31.5642,17.92342 4.8003446,4.8003446 0 1 0 6.2948,7.24905 z"
           id="path149" />
        <path
           style="fill:#0f3047;stroke-width:0.96001166"
           inkscape:connector-curvature="0"
           d="m 2049.9529,-217.27608 a 4.800211,4.800211 0 0 0 5.2801,-8.01802 118.07184,118.07184 0 0 1 -30.2702,-28.18306 4.8001599,4.8001599 0 1 0 -7.7175,5.71015 127.65083,127.65083 0 0 0 32.7076,30.49093 z"
           id="path151" />
        <path
           style="fill:#0f3047;stroke-width:0.96001166"
           inkscape:connector-curvature="0"
           d="m 2001.5174,-295.75031 a 4.8000585,4.8000585 0 0 0 -3.6173,5.74471 113.89675,113.89675 0 0 0 7.8404,22.93372 4.8000585,4.8000585 0 1 0 8.6977,-4.06277 104.26399,104.26399 0 0 1 -7.176,-20.99738 4.8000585,4.8000585 0 0 0 -5.7448,-3.61828 z"
           id="path153" />
        <path
           style="fill:#0f3047;stroke-width:0.96001166"
           inkscape:connector-curvature="0"
           d="m 1999.6733,-315.04655 h 0.1747 a 4.8000585,4.8000585 0 0 0 4.7943,-4.62822 72.597044,72.597044 0 0 1 1.0013,-10.32588 4.8000585,4.8000585 0 0 0 -9.4081,-1.89794 79.914253,79.914253 0 0 0 -1.1847,11.88014 4.8000585,4.8000585 0 0 0 4.6225,4.9719 z"
           id="path155" />
        <circle
           style="fill:#0f3047;stroke-width:0.96001166"
           cx="1893.9548"
           cy="-126.7796"
           r="5.2800641"
           id="circle157" />
        <path
           style="fill:#f4c161;stroke-width:0.96001166"
           inkscape:connector-curvature="0"
           d="m 2040.0456,29.655248 1.488,-4.819258 c -1.1712,-2.131226 -2.1024,-4.05125 -2.8224,-5.673669 l -0.8928,9.513715 z"
           id="path159" />
        <path
           style="fill:#ad2a34;stroke-width:0.96001166"
           inkscape:connector-curvature="0"
           d="m 1988.9634,-160.93587 c 0.1152,-0.72961 -14.477,-4.78086 -16.4834,-5.34727 -1.2288,-4.09925 -8.7361,-27.80194 -25.1715,-55.78628 -28.858,-49.1238 -62.7464,-72.82648 -86.8331,-84.15462 -1.3728,-6.89289 -4.5697,-29.42436 7.0273,-49.5366 5.6554,-9.8094 14.0786,-17.71894 25.1369,-23.64989 a 50.042529,50.042529 0 0 1 0.7738,-5.40007 c -17.261,6.12488 -29.8372,15.87859 -37.4309,29.04996 -11.5969,20.11224 -8.4001,42.64371 -7.0272,49.5366 24.0867,11.32814 57.9751,35.03082 86.833,84.15462 16.4354,27.98434 23.9427,51.68703 25.1715,55.78628 2.0065,0.56641 16.5986,4.61766 16.4834,5.34727 a 153.87739,153.87739 0 0 1 22.5987,10.14732 c 1.8912,-0.33696 5.1178,-0.83809 9.2363,-1.25377 a 165.31401,165.31401 0 0 0 -20.3148,-8.89355 z"
           id="path161" />
        <path
           style="fill:#f4c161;stroke-width:0.96001166"
           inkscape:connector-curvature="0"
           d="m 2026.5382,-6.8251959 -3.5712,0.5472067 -0.3648,-0.8832108 a 15.121144,15.121144 0 0 0 -13.9874,-9.312113 5.5267873,5.5267873 0 0 1 -4.3584,-2.112026 l -7.2865,-9.235313 a 5.5277473,5.5277473 0 0 1 -0.8928,-5.260864 l 10.0513,-29.001953 c 2.784,1.852823 5.2224,3.523243 7.2673,4.94406 a 20.470329,20.470329 0 0 0 -6.5857,17.750617 l 1.3056,10.204924 a 20.53369,20.53369 0 0 0 12.2402,16.214597 l 0.3552,0.153602 a 10.835652,10.835652 0 0 1 5.8272,5.9904731 z"
           id="path163" />
        <path
           style="fill:#efaf48;stroke-width:0.96001166"
           inkscape:connector-curvature="0"
           d="m 2009.0564,-17.625327 -7.2865,-9.235313 a 5.5277473,5.5277473 0 0 1 -0.8928,-5.260864 l 9.4081,-27.156811 q -1.9277,-1.316176 -4.1607,-2.805154 l -10.0513,29.001953 a 5.5277473,5.5277473 0 0 0 0.8928,5.260864 l 7.2865,9.235313 a 5.5267873,5.5267873 0 0 0 4.3585,2.112026 15.253626,15.253626 0 0 1 1.8691,0.123841 5.6074283,5.6074283 0 0 1 -1.4237,-1.275855 z"
           id="path165" />
        <path
           style="fill:#efaf48;stroke-width:0.96001166"
           inkscape:connector-curvature="0"
           d="m 2020.711,-12.815669 -0.3552,-0.153602 a 20.271607,20.271607 0 0 1 -3.9159,-2.232987 15.244986,15.244986 0 0 0 -2.4529,-0.288003 15.113464,15.113464 0 0 1 8.6152,8.3309811 l 0.3648,0.8832107 3.5712,-0.5472066 a 10.835652,10.835652 0 0 0 -5.8272,-5.9923932 z"
           id="path167" />
        <path
           style="fill:#efaf48;stroke-width:0.96001166"
           inkscape:connector-curvature="0"
           d="m 2073.2236,36.39933 a 76.924777,76.924777 0 0 1 -9.3697,-7.680093 75.806363,75.806363 0 0 1 -10.3355,-12.28815 4.7837383,4.7837383 0 0 1 -3.2007,1.127054 l -1.7664,-0.048 a 75.605721,75.605721 0 0 0 15.3026,20.813054 77.812788,77.812788 0 0 0 26.3523,16.656203 101.04795,101.04795 0 0 1 -16.9826,-18.580067 z"
           id="path169" />
        <path
           style="fill:#efaf48;stroke-width:0.96001166"
           inkscape:connector-curvature="0"
           d="m 2205.3855,-0.10127399 -0.1603,3.45604209 a 38.824793,38.824793 0 0 1 -11.9617,26.3235209 l -3.242,3.113318 -0.1469,1.523538 a 4.8720593,4.8720593 0 0 1 -1.1424,2.678433 46.453046,46.453046 0 0 1 -7.8817,7.257688 l 0.288,0.403205 12.8066,-9.139311 5.0784,-4.87686 a 38.824793,38.824793 0 0 0 11.9618,-26.3235202 l 0.4608,-9.9265209 z"
           id="path171" />
      </g>
      <g
         transform="translate(2446.5233,-611.62918)"
         id="g2616">
        <path
           style="fill:#544f57;stroke-width:0.77281499"
           inkscape:connector-curvature="0"
           d="m 296.927,858.85286 c -0.026,-16.65262 -10.1765,-31.612 -25.6328,-37.79298 -4.9329,67.91112 -61.591,121.47415 -130.7603,121.47415 h 154.3513 c 1.1994,0 2.1708,-0.97297 2.1693,-2.17238 z"
           id="path334" />
        <g
           id="g1974">
          <path
             id="path302"
             d="m 37.299004,810.13228 c 0,57.0152 46.2197,103.23494 103.234896,103.23494 57.0152,0 103.235,-46.21974 103.235,-103.23494 l -34.2991,-13.617 -15.0583,23.67441 c -9.045,14.22057 -24.7293,22.83283 -41.5829,22.83283 H 128.24 c -16.8536,0 -32.537796,-8.61226 -41.582896,-22.83283 l -15.0583,-23.67441 z"
             inkscape:connector-curvature="0"
             style="fill:#f1f1f4;stroke-width:0.77281499" />
          <path
             id="path304"
             d="m 211.9011,797.48053 c -1.7203,55.50821 -47.2592,99.9783 -103.1847,99.9783 -10.259196,0 -20.168996,-1.49694 -29.523096,-4.28371 17.1495,12.68884 38.368696,20.1921 61.340596,20.1921 57.0152,0 103.235,-46.21974 103.235,-103.23494 z"
             inkscape:connector-curvature="0"
             style="fill:#dfdde2;stroke-width:0.77281499" />
          <path
             id="path306"
             d="m 78.381804,720.65808 6.1594,44.99483 c 0.728,5.31697 3.9985,9.94613 8.7668,12.40832 l 17.610896,9.09449 c 4.5279,2.33854 9.5504,3.55881 14.6464,3.55881 h 29.9365 c 5.096,0 10.1185,-1.22027 14.6464,-3.55881 l 17.6109,-9.09449 c 4.7683,-2.46219 8.0388,-7.09135 8.7668,-12.40832 l 6.1594,-44.99483 z"
             inkscape:connector-curvature="0"
             style="fill:#c6c1c8;stroke-width:0.77281499" />
          <path
             id="path308"
             d="m 216.5758,694.25795 c -2.779,-1.86403 -4.2984,-5.11372 -4.0526,-8.45073 l 1.9428,-26.38468 c 0.6083,-8.26062 -0.1027,-16.28012 -1.9474,-23.85602 H 68.438804 c -1.7891,7.33865 -2.4838,15.08689 -1.8965,23.05538 l 2.0024,27.18532 c 0.2457,3.33701 -1.2744,6.5867 -4.0527,8.45073 -3.8571,2.58738 -6.395,6.98779 -6.395,11.98172 0,7.96309 6.4553,14.41841 14.4184,14.41841 h 19.4711 c 3.7002,0 6.8479,2.69712 7.4151,6.35408 l 4.439896,28.6413 c 0.83,5.35561 5.4406,9.30624 10.8603,9.30624 h 51.665 c 5.4198,0 10.0296,-3.95063 10.8604,-9.30624 l 4.4398,-28.6413 c 0.5665,-3.65618 3.7149,-6.35408 7.4152,-6.35408 h 19.471 c 7.9631,0 14.4192,-6.45532 14.4192,-14.41841 -7e-4,-4.99393 -2.5394,-9.39434 -6.3966,-11.98172 z"
             inkscape:connector-curvature="0"
             style="fill:#f1f1f4;stroke-width:0.77281499" />
          <path
             id="path310"
             d="m 216.5465,694.23863 c -2.7729,-1.85012 -4.2683,-5.10676 -4.0233,-8.43141 l 1.9428,-26.38468 c 0.6083,-8.26062 -0.1027,-16.28012 -1.9474,-23.85602 h -21.7331 c 0.073,2.61907 0.015,5.27059 -0.1817,7.94762 l -1.9428,26.38468 c -0.245,3.32465 1.2504,6.58052 4.0233,8.43141 3.9344,2.62603 6.5047,7.13463 6.4228,12.23907 -0.1283,7.93527 -6.8703,14.18038 -14.8063,14.18038 h -2.4939 c -13.2461,0 -24.5152,9.65633 -26.5439,22.74627 l -1.8988,12.24911 c -0.83,5.35561 -5.4406,9.30624 -10.8604,9.30624 h -39.6856 l 1.0233,6.60216 c 0.83,5.35561 5.4406,9.30624 10.8603,9.30624 h 51.665 c 5.4198,0 10.0296,-3.95063 10.8604,-9.30624 l 4.4398,-28.6413 c 0.5665,-3.65696 3.7149,-6.35408 7.4152,-6.35408 h 19.0815 c 7.9361,0 14.6789,-6.24589 14.8064,-14.18038 0.082,-5.10444 -2.4885,-9.61382 -6.4236,-12.23907 z"
             inkscape:connector-curvature="0"
             style="fill:#dfdde2;stroke-width:0.77281499" />
          <path
             id="path312"
             d="m 129.9966,671.09977 c 0,10.89824 -8.7313,19.75779 -19.5808,19.96336 C 99.223904,691.27566 90.062904,681.84422 90.062904,670.65 v -6.35486 c 0,-0.65148 0.5279,-1.18009 1.1801,-1.18009 H 128.8173 c 0.6515,0 1.1801,0.52783 1.1801,1.18009 v 6.80463 z"
             inkscape:connector-curvature="0"
             style="fill:#665e66;stroke-width:0.77281499" />
          <path
             id="path314"
             d="m 151.0713,671.09977 c 0,10.89824 8.7312,19.75779 19.5808,19.96336 11.1919,0.21253 20.3528,-9.21891 20.3528,-20.41313 v -6.35486 c 0,-0.65148 -0.5278,-1.18009 -1.1801,-1.18009 h -37.5742 c -0.6515,0 -1.1801,0.52783 -1.1801,1.18009 v 6.80463 z"
             inkscape:connector-curvature="0"
             style="fill:#665e66;stroke-width:0.77281499" />
          <path
             id="path316"
             d="m 190.2978,675.9801 c 0.4614,-1.70637 0.7079,-3.4939 0.7079,-5.3301 v -6.35486 c 0,-0.65148 -0.5286,-1.18009 -1.1801,-1.18009 h -0.6654 l -0.4992,6.783 c -0.1615,2.1832 0.4281,4.33704 1.6368,6.08205 z"
             inkscape:connector-curvature="0"
             style="fill:#544f57;stroke-width:0.77281499" />
          <path
             id="path318"
             d="M 214.5031,615.06451 H 66.564704 v -66.92655 c 0,-0.57652 0.6871,-0.8756 1.109,-0.48301 l 34.902696,32.49996 c 0.2503,0.23339 0.6383,0.23648 0.8918,0.006 l 36.6237,-33.13831 c 0.2511,-0.22721 0.6337,-0.22721 0.8849,0 l 36.6237,33.13831 c 0.2542,0.22952 0.6414,0.2272 0.8918,-0.006 l 34.9026,-32.49996 c 0.422,-0.39259 1.109,-0.0935 1.109,0.48301 v 66.92655 z"
             inkscape:connector-curvature="0"
             style="fill:#f9f48e;stroke-width:0.77281499" />
          <path
             id="path320"
             d="m 182.6864,576.24988 v 11.16486 c 0,6.48469 -5.2567,11.74137 -11.7414,11.74137 H 66.564704 v 15.9084 H 214.5039 v -66.92655 c 0,-0.57652 -0.687,-0.8756 -1.109,-0.48301 z"
             inkscape:connector-curvature="0"
             style="fill:#f6e738;stroke-width:0.77281499" />
          <path
             id="path322"
             d="M 214.5031,635.56652 H 66.564704 c -4.6763,0 -8.4677,-3.79143 -8.4677,-8.46773 v -3.56655 c 0,-4.6763 3.7914,-8.46773 8.4677,-8.46773 H 214.5039 c 4.6763,0 8.4678,3.79143 8.4678,8.46773 v 3.56655 c 0,4.6763 -3.7915,8.46773 -8.4686,8.46773 z"
             inkscape:connector-curvature="0"
             style="fill:#f9f48e;stroke-width:0.77281499" />
          <path
             id="path324"
             d="m 198.6682,750.00727 -2.1415,15.64564 c -0.728,5.31697 -3.9985,9.94613 -8.7668,12.40832 l -17.6109,9.09449 c -4.5279,2.33854 -9.5505,3.55804 -14.6464,3.55804 h -29.9365 c -5.096,0 -10.1185,-1.22028 -14.6464,-3.55804 l -17.610896,-9.09449 c -4.7683,-2.46219 -8.0389,-7.09135 -8.7669,-12.40832 l -2.1414,-15.64564 h -38.201 c -0.9452,0 -1.5179,1.0433 -1.0109,1.84085 l 43.4685,68.3408 c 9.0451,14.22057 24.729296,22.83282 41.582896,22.83282 h 24.5886 c 16.8536,0 32.5379,-8.61225 41.5829,-22.83282 l 43.4685,-68.3408 c 0.507,-0.79755 -0.066,-1.84085 -1.0108,-1.84085 z"
             inkscape:connector-curvature="0"
             style="fill:#544f57;stroke-width:0.77281499" />
          <ellipse
             id="ellipse326"
             ry="15.477938"
             rx="11.895168"
             cy="878.19409"
             cx="140.53392"
             style="fill:#e28086;stroke-width:0.77281499" />
          <path
             id="path328"
             d="m 140.5339,893.67204 c 3.1732,0 6.0558,-1.61673 8.188,-4.25126 -3.5209,1.48149 -7.1416,2.77286 -10.8488,3.86253 0.8555,0.25426 1.7458,0.38873 2.6608,0.38873 z"
             inkscape:connector-curvature="0"
             style="fill:#dd636e;stroke-width:0.77281499" />
          <path
             id="path330"
             d="m 9.4243045,810.13228 c 0,-3.07194 2.4907995,-5.56272 5.5626995,-5.56272 h 16.7524 c 3.0704,0 5.5604,2.48923 5.5604,5.5604 v 0.003 c 0,57.0152 46.2197,103.23495 103.234896,103.23495 57.0152,0 103.2349,-46.21975 103.2349,-103.23495 0,-3.07271 2.4908,-5.56272 5.5628,-5.56272 h 16.7492 c 3.0719,0 5.5627,2.49078 5.5627,5.56272 v 1.29215 c -8e-4,72.4089 -58.7007,131.10883 -131.1104,131.10883 -72.409596,0 -131.1095955,-58.69993 -131.1095955,-131.10961 z"
             inkscape:connector-curvature="0"
             style="fill:#f9f48e;stroke-width:0.77281499" />
          <path
             id="path332"
             d="m 266.0808,804.56878 h -16.7492 c -3.0719,0 -5.5627,2.49079 -5.5627,5.56273 0,43.00715 -26.2989,79.87197 -63.6916,95.3901 -20.5352,13.34883 -45.0427,21.10326 -71.3602,21.10326 -14.733696,0 -28.899396,-2.43051 -42.118396,-6.91206 21.0476,14.39909 46.507996,22.82122 73.935196,22.82122 72.4097,0 131.1096,-58.69993 131.1096,-131.1096 v -1.29215 c 0,-3.07271 -2.49,-5.5635 -5.5627,-5.5635 z"
             inkscape:connector-curvature="0"
             style="fill:#f6e738;stroke-width:0.77281499" />
          <path
             id="path336"
             d="m 9.7736045,821.06066 c -15.4563,6.1802 -25.6064005,21.13958 -25.6327005,37.79297 l -0.1275,81.50879 c 0,1.19941 0.9699,2.17239 2.1693,2.17239 H 140.5339 C 71.364704,942.53403 14.706504,888.971 9.7736045,821.06066 Z"
             inkscape:connector-curvature="0"
             style="fill:#665e66;stroke-width:0.77281499" />
          <path
             id="path338"
             d="m 128.2392,843.02252 h 24.5887 c 0.8949,0 1.7859,-0.0247 2.6739,-0.0726 v -52.23616 h -29.9365 v 52.23611 c 0.8879,0.0479 1.779,0.0726 2.6739,0.0726 z"
             inkscape:connector-curvature="0"
             style="fill:#dfdde2;stroke-width:0.77281499" />
          <path
             id="path340"
             d="m 35.957404,909.62525 c -3.2945,0 -5.9654,2.67085 -5.9654,5.96536 v 26.94342 h 11.9307 v -26.94264 c 0,-3.29451 -2.6708,-5.96614 -5.9653,-5.96614 z"
             inkscape:connector-curvature="0"
             style="fill:#544f57;stroke-width:0.77281499" />
          <path
             id="path342"
             d="m 245.1105,909.62525 c -3.2945,0 -5.9654,2.67085 -5.9654,5.96536 v 26.94342 h 11.9315 v -26.94264 c 0,-3.29451 -2.6708,-5.96614 -5.9661,-5.96614 z"
             inkscape:connector-curvature="0"
             style="fill:#454045;stroke-width:0.77281499" />
          <path
             id="path344"
             d="m 158.8218,741.12377 v 23.83593 h -11.9315 v -23.83593 c 0,-3.29451 2.6709,-5.96536 5.9654,-5.96536 3.2945,0 5.9661,2.67007 5.9661,5.96536 z m -30.6096,-5.96614 c -3.2945,0 -5.9654,2.67085 -5.9654,5.96536 v 23.83594 h 11.9315 v -23.83594 c -8e-4,-3.29451 -2.6716,-5.96536 -5.9661,-5.96536 z"
             inkscape:connector-curvature="0"
             style="fill:#c6c1c8;stroke-width:0.77281499" />
          <path
             id="path346"
             d="m 122.246,749.05053 h 11.9315 v 15.9084 H 122.246 Z"
             inkscape:connector-curvature="0"
             style="fill:#afaab4;stroke-width:0.77281499" />
          <path
             id="path348"
             d="m 154.0559,735.27897 -0.6925,4.46609 c -0.5927,3.82157 -3.1105,6.92752 -6.4731,8.39355 v 16.82109 h 11.9315 v -23.83593 c 0,-2.88415 -2.0464,-5.28992 -4.7659,-5.8448 z"
             inkscape:connector-curvature="0"
             style="fill:#afaab4;stroke-width:0.77281499" />
          <path
             id="path350"
             d="m 129.1882,721.27711 c -0.5116,0 -1.0309,-0.0657 -1.5479,-0.2048 -3.1825,-0.85319 -5.0712,-4.12374 -4.2188,-7.30619 l 2.0858,-7.78534 c 0.8532,-3.18323 4.1276,-5.06889 7.3062,-4.2188 3.1825,0.85319 5.0712,4.12374 4.2188,7.30619 l -2.0858,7.78534 c -0.7141,2.66544 -3.1245,4.4236 -5.7583,4.4236 z"
             inkscape:connector-curvature="0"
             style="fill:#c6c1c8;stroke-width:0.77281499" />
          <path
             id="path352"
             d="m 151.8796,721.27711 c -2.6337,0 -5.0441,-1.75816 -5.759,-4.4236 l -2.0858,-7.78534 c -0.8524,-3.18245 1.0363,-6.45377 4.2188,-7.30619 3.1824,-0.85009 6.4538,1.03557 7.3062,4.2188 l 2.0858,7.78534 c 0.8524,3.18245 -1.0363,6.45377 -4.2188,7.30619 -0.5162,0.13833 -1.0363,0.2048 -1.5472,0.2048 z"
             inkscape:connector-curvature="0"
             style="fill:#c6c1c8;stroke-width:0.77281499" />
          <path
             id="path354"
             d="m 150.089,579.66649 h -3.5889 v -3.58895 c 0,-3.29451 -2.6709,-5.96536 -5.9654,-5.96536 -3.2945,0 -5.9654,2.67085 -5.9654,5.96536 v 3.58895 h -3.5889 c -3.2945,0 -5.9654,2.67085 -5.9654,5.96536 0,3.29451 2.6709,5.96536 5.9654,5.96536 h 3.5889 v 3.58973 c 0,3.29451 2.6709,5.96536 5.9654,5.96536 3.2945,0 5.9654,-2.67085 5.9654,-5.96536 v -3.58973 h 3.5889 c 3.2945,0 5.9654,-2.67085 5.9654,-5.96536 0,-3.29451 -2.6709,-5.96536 -5.9654,-5.96536 z"
             inkscape:connector-curvature="0"
             style="fill:#e28086;stroke-width:0.77281499" />
          <path
             id="path356"
             d="m 214.5031,570.11141 c -3.2945,0 -5.9653,2.67085 -5.9653,5.96536 v 3.58895 h -3.589 c -3.2945,0 -5.9653,2.67085 -5.9653,5.96536 0,3.29451 2.6708,5.96536 5.9653,5.96536 h 3.589 v 3.58972 c 0,3.29451 2.6708,5.96536 5.9653,5.96536 3.2946,0 5.9654,-2.67085 5.9654,-5.96536 v -19.10862 c 8e-4,-3.29528 -2.6701,-5.96613 -5.9654,-5.96613 z"
             inkscape:connector-curvature="0"
             style="fill:#e28086;stroke-width:0.77281499" />
          <path
             id="path358"
             d="m 76.119004,579.66649 h -3.5889 v -3.58895 c 0,-3.29451 -2.6709,-5.96536 -5.9654,-5.96536 -3.2945,0 -5.9653,2.67085 -5.9653,5.96536 v 19.11017 c 0,3.29451 2.6708,5.96536 5.9653,5.96536 3.2945,0 5.9654,-2.67085 5.9654,-5.96536 v -3.58973 h 3.5889 c 3.2945,0 5.9654,-2.67084 5.9654,-5.96535 0,-3.29452 -2.6701,-5.96614 -5.9654,-5.96614 z"
             inkscape:connector-curvature="0"
             style="fill:#e28086;stroke-width:0.77281499" />
          <path
             id="path360"
             d="m 167.6304,819.72678 h -54.1921 c -3.2945,0 -5.9654,-2.67085 -5.9654,-5.96536 0,-3.29451 2.6709,-5.96536 5.9654,-5.96536 h 54.1921 c 3.2945,0 5.9653,2.67085 5.9653,5.96536 0,3.29451 -2.6708,5.96536 -5.9653,5.96536 z"
             inkscape:connector-curvature="0"
             style="fill:#f1f1f4;stroke-width:0.77281499" />
          <path
             id="path362"
             d="m 209.4698,796.51528 h -17.4579 c -3.2945,0 -5.9653,2.67085 -5.9653,5.96536 0,3.29451 2.6708,5.96536 5.9653,5.96536 h 9.8689 z"
             inkscape:connector-curvature="0"
             style="fill:#454045;stroke-width:0.77281499" />
          <path
             id="path364"
             d="m 71.598104,796.51528 h 17.4579 c 3.2945,0 5.9653,2.67085 5.9653,5.96536 0,3.29451 -2.6708,5.96536 -5.9653,5.96536 h -9.8689 z"
             inkscape:connector-curvature="0"
             style="fill:#454045;stroke-width:0.77281499" />
          <path
             id="path366"
             d="m 185.1192,868.78353 c 0,3.29451 -2.6709,5.96536 -5.9654,5.96536 -3.2945,0 -5.9653,-2.67085 -5.9653,-5.96536 0,-3.29451 2.6708,-5.96536 5.9653,-5.96536 3.2945,0 5.9654,2.67008 5.9654,5.96536 z m 15.2646,-21.37065 c -3.2945,0 -5.9653,2.67085 -5.9653,5.96536 0,3.29451 2.6708,5.96535 5.9653,5.96535 3.2945,0 5.9654,-2.67084 5.9654,-5.96535 0,-3.29451 -2.6709,-5.96536 -5.9654,-5.96536 z m 15.0374,-22.57084 c -3.2945,0 -5.9653,2.67085 -5.9653,5.96536 0,3.29451 2.6708,5.96536 5.9653,5.96536 3.2946,0 5.9654,-2.67085 5.9654,-5.96536 8e-4,-3.29451 -2.6701,-5.96536 -5.9654,-5.96536 z M 101.914,862.8174 c -3.294496,0 -5.965296,2.67085 -5.965296,5.96536 0,3.29451 2.6708,5.96536 5.965296,5.96536 3.2946,0 5.9654,-2.67085 5.9654,-5.96536 8e-4,-3.29451 -2.6701,-5.96536 -5.9654,-5.96536 z M 80.684004,847.41288 c -3.2945,0 -5.9653,2.67085 -5.9653,5.96536 0,3.29451 2.6708,5.96535 5.9653,5.96535 3.2946,0 5.9654,-2.67084 5.9654,-5.96535 0,-3.29451 -2.6708,-5.96536 -5.9654,-5.96536 z m -15.0374,-22.57084 c -3.2945,0 -5.9653,2.67085 -5.9653,5.96536 0,3.29451 2.6708,5.96536 5.9653,5.96536 3.2945,0 5.9654,-2.67085 5.9654,-5.96536 0,-3.29451 -2.6709,-5.96536 -5.9654,-5.96536 z"
             inkscape:connector-curvature="0"
             style="fill:#ffffff;stroke-width:0.77281499" />
          <g
             transform="matrix(0.77281497,0,0,0.77281497,-57.306696,546.85277)"
             id="g374"
             style="fill:#f1f1f4">
            <circle
               id="circle368"
               r="7.7189999"
               cy="367.42899"
               cx="352.90201" />
            <path
               id="path370"
               d="m 333.444,404.355 c 4.263,0 7.719,-3.456 7.719,-7.719 0,-4.263 -3.456,-7.719 -7.719,-7.719 -2.186,0 -4.16,0.909 -5.565,2.37 -0.525,0.832 -1.06,1.659 -1.603,2.478 -0.356,0.888 -0.552,1.856 -0.552,2.871 0,4.263 3.457,7.719 7.72,7.719 z"
               inkscape:connector-curvature="0" />
            <path
               id="path372"
               d="m 300.822,422.318 c 1.366,1.225 3.171,1.97 5.151,1.97 4.263,0 7.719,-3.456 7.719,-7.719 0,-1.823 -0.632,-3.497 -1.688,-4.818 -3.521,3.731 -7.255,7.26 -11.182,10.567 z"
               inkscape:connector-curvature="0" />
          </g>
        </g>
      </g>
      <g
         transform="matrix(0.76701799,0,0,0.76701799,1329.9621,-83.516478)"
         id="g1730">
        <path
           style="fill:#dd636e"
           inkscape:connector-curvature="0"
           d="m 75.022,333.404 c -21.392,8.554 -35.441,29.258 -35.477,52.307 l -0.18,125.455 c -0.001,0.461 0.373,0.835 0.833,0.835 H 152.483 V 302.65 c -21.342,8.473 -77.461,30.753 -77.461,30.754 z"
           id="path1621" />
        <path
           style="fill:#ffffff"
           inkscape:connector-curvature="0"
           d="M 254.631,367.802 200.686,319.13 V 512 H 311.314 V 319.13 l -53.945,48.672 c -0.778,0.701 -1.96,0.701 -2.738,0 z"
           id="path1623" />
        <path
           style="fill:#f1f1f4"
           inkscape:connector-curvature="0"
           d="M 200.686,491.389 H 311.314 V 512 H 200.686 Z"
           id="path1625" />
        <path
           style="fill:#dd636e"
           inkscape:connector-curvature="0"
           d="m 472.454,385.71 c -0.036,-23.048 -14.085,-43.752 -35.477,-52.307 0,-0.001 -56.119,-22.28 -77.462,-30.754 V 512 H 471.8 c 0.461,0 0.834,-0.374 0.833,-0.835 z"
           id="path1627" />
        <path
           style="fill:#da4a54"
           inkscape:connector-curvature="0"
           d="m 472.455,385.71 c -0.036,-23.048 -14.085,-43.752 -35.477,-52.307 0,0 -10.19,-4.046 -23.537,-9.345 11.112,10.444 17.766,25.188 17.791,41.04 l 0.118,82.045 c 0.035,24.426 -19.756,44.245 -44.181,44.245 H 359.517 V 512 h 112.285 c 0.461,0 0.834,-0.374 0.833,-0.835 z"
           id="path1629" />
        <path
           style="fill:#f4e2c1"
           inkscape:connector-curvature="0"
           d="m 167.257,288.968 -7.935,2.916 c -4.108,1.509 -6.838,5.421 -6.838,9.798 V 512 h 48.202 V 319.13 Z"
           id="path1631" />
        <path
           style="fill:#f4e2c1"
           inkscape:connector-curvature="0"
           d="m 352.678,291.884 -7.935,-2.916 -33.429,30.162 V 512 h 48.202 V 301.682 c 0,-4.377 -2.73,-8.289 -6.838,-9.798 z"
           id="path1633" />
        <path
           style="fill:#f9f48e"
           inkscape:connector-curvature="0"
           d="M 254.631,367.802 240.643,355.181 V 512 h 30.714 V 355.18 l -13.989,12.621 c -0.777,0.702 -1.959,0.702 -2.737,0.001 z"
           id="path1635" />
        <path
           style="fill:#da4a54"
           inkscape:connector-curvature="0"
           d="M 40.199,512 H 152.484 V 491.389 H 39.394 l -0.028,19.777 c -10e-4,0.46 0.372,0.834 0.833,0.834 z"
           id="path1637" />
        <path
           style="fill:#f4ddb1"
           inkscape:connector-curvature="0"
           d="m 152.484,491.389 h 48.202 V 512 h -48.202 z"
           id="path1639" />
        <path
           style="fill:#f4ddb1"
           inkscape:connector-curvature="0"
           d="m 311.314,491.389 h 48.202 V 512 h -48.202 z"
           id="path1641" />
        <path
           style="fill:#f6e738"
           inkscape:connector-curvature="0"
           d="m 240.643,491.389 h 30.714 V 512 h -30.714 z"
           id="path1643" />
        <path
           style="fill:#f9f48e"
           inkscape:connector-curvature="0"
           d="M 358.377,122.911 H 153.623 c -6.473,0 -11.72,-5.247 -11.72,-11.72 v -4.936 c 0,-6.473 5.247,-11.72 11.72,-11.72 h 204.754 c 6.473,0 11.72,5.247 11.72,11.72 v 4.936 c 0,6.472 -5.247,11.72 -11.72,11.72 z"
           id="path1645" />
        <path
           style="fill:#f9f48e"
           inkscape:connector-curvature="0"
           d="m 320.326,35.968 c 3.004,3.44 4.6,8.142 3.89,13.206 -1.029,7.332 -7.052,13.157 -14.411,13.973 -9.934,1.102 -18.344,-6.645 -18.344,-16.357 0,-4.059 1.469,-7.774 3.904,-10.644 0.192,-0.226 0.176,-0.559 -0.044,-0.758 L 256.368,0.142 c -0.209,-0.189 -0.527,-0.189 -0.736,0 l -38.953,35.246 c -0.22,0.199 -0.236,0.532 -0.044,0.759 2.519,2.968 4.003,6.841 3.899,11.063 -0.212,8.519 -7.145,15.621 -15.657,16.023 -9.455,0.447 -17.261,-7.086 -17.261,-16.442 0,-4.143 1.531,-7.929 4.058,-10.823 0.195,-0.223 0.184,-0.556 -0.033,-0.758 L 154.545,0.668 C 154.194,0.341 153.623,0.59 153.623,1.069 V 94.535 H 358.377 V 1.069 c 0,-0.479 -0.572,-0.728 -0.922,-0.401 L 320.36,35.209 c -0.218,0.202 -0.229,0.536 -0.034,0.759 z"
           id="path1647" />
        <path
           style="fill:#f6e738"
           inkscape:connector-curvature="0"
           d="m 320.359,35.21 c -0.217,0.202 -0.228,0.535 -0.033,0.758 2.527,2.894 4.058,6.679 4.058,10.823 0,5.67 -2.867,10.67 -7.23,13.631 v 0.597 c 0,7.128 -5.778,12.905 -12.905,12.905 H 153.623 V 94.535 H 358.377 V 1.069 c 0,-0.479 -0.572,-0.728 -0.922,-0.401 z"
           id="path1649" />
        <path
           style="fill:#f1b986"
           inkscape:connector-curvature="0"
           d="m 347.989,211.681 h -2.94 l 4.443,-60.331 h 15.961 c 11.224,0 20.322,9.098 20.322,20.322 v 2.223 c 0,20.868 -16.918,37.786 -37.786,37.786 z"
           id="path1651" />
        <path
           style="fill:#f1d0a5"
           inkscape:connector-curvature="0"
           d="m 164.011,211.681 h 2.94 l -4.443,-60.331 h -15.962 c -11.224,0 -20.322,9.098 -20.322,20.322 v 2.223 c 10e-4,20.868 16.918,37.786 37.787,37.786 z"
           id="path1653" />
        <path
           style="fill:#fbf6ec"
           inkscape:connector-curvature="0"
           d="m 345.048,211.681 5.673,-77.026 c 0.292,-3.962 0.337,-7.882 0.148,-11.745 h -27.563 c 0.216,3.204 0.207,6.45 -0.034,9.722 l -5.036,68.399 c -0.7,9.508 -9.282,16.451 -18.726,15.15 h -10e-4 c -14.31,-1.971 -28.738,-2.959 -43.183,-2.959 h -0.651 c -14.445,0 -28.873,0.989 -43.183,2.959 -9.445,1.301 -18.026,-5.642 -18.726,-15.15 l -5.037,-68.398 c -0.241,-3.272 -0.251,-6.519 -0.035,-9.723 h -27.563 c -0.188,3.863 -0.144,7.783 0.148,11.745 l 5.673,77.026 -16.497,47.506 c -2.343,6.748 -0.42,14.243 4.884,19.028 l 99.293,89.587 c 0.778,0.702 1.96,0.702 2.737,0 l 99.293,-89.587 c 5.304,-4.785 7.227,-12.28 4.884,-19.028 z"
           id="path1655" />
        <path
           style="fill:#f9efda"
           inkscape:connector-curvature="0"
           d="m 361.545,259.186 -16.497,-47.505 5.673,-77.026 c 0.292,-3.962 0.337,-7.882 0.148,-11.745 h -27.563 c 0.216,3.204 0.207,6.45 -0.034,9.722 l -5.037,68.398 c -0.372,5.052 -2.969,9.379 -6.738,12.131 l 5.514,15.878 c 4.35,12.527 0.779,26.442 -9.067,35.325 l -83.978,75.769 30.665,27.667 c 0.778,0.702 1.96,0.702 2.737,0 l 99.293,-89.587 c 5.304,-4.783 7.228,-12.279 4.884,-19.027 z"
           id="path1657" />
        <path
           style="fill:#f1d0a5"
           inkscape:connector-curvature="0"
           d="m 188.728,132.634 5.037,68.398 c 0.7,9.508 9.282,16.45 18.726,15.15 14.31,-1.971 28.738,-2.959 43.183,-2.959 h 0.651 c 14.445,0 28.873,0.989 43.183,2.959 h 0.001 c 9.445,1.301 18.026,-5.642 18.726,-15.15 l 5.036,-68.398 c 0.241,-3.272 0.251,-6.518 0.034,-9.722 H 188.693 c -0.216,3.203 -0.206,6.45 0.035,9.722 z"
           id="path1659" />
        <path
           style="fill:#f1b986"
           inkscape:connector-curvature="0"
           d="m 323.307,122.911 h -21.448 l -4.235,57.509 c -0.7,9.508 -9.281,16.451 -18.726,15.15 h -0.001 c -14.31,-1.971 -28.738,-2.959 -43.183,-2.959 h -0.651 c -13.951,0 -27.887,0.923 -41.715,2.761 l 0.417,5.66 c 0.7,9.508 9.282,16.451 18.726,15.15 14.31,-1.971 28.738,-2.959 43.183,-2.959 h 0.651 c 14.445,0 28.873,0.989 43.183,2.959 h 0.001 c 9.445,1.301 18.026,-5.642 18.726,-15.15 l 5.037,-68.399 c 0.241,-3.272 0.251,-6.519 0.035,-9.722 z"
           id="path1661" />
        <path
           style="fill:#da4a54"
           inkscape:connector-curvature="0"
           d="m 111.262,425.094 c -4.269,0 -7.729,3.46 -7.729,7.729 V 512 h 15.458 v -79.176 c 0,-4.27 -3.46,-7.73 -7.729,-7.73 z"
           id="path1663" />
        <path
           style="fill:#d82e3d"
           inkscape:connector-curvature="0"
           d="m 103.533,491.389 h 15.458 V 512 h -15.458 z"
           id="path1665" />
        <path
           style="fill:#da4a54"
           inkscape:connector-curvature="0"
           d="m 400.738,425.094 c -4.269,0 -7.729,3.46 -7.729,7.729 V 512 h 15.458 v -79.176 c 0,-4.27 -3.46,-7.73 -7.729,-7.73 z"
           id="path1667" />
        <path
           style="fill:#d82e3d"
           inkscape:connector-curvature="0"
           d="M 393.009,491.005 V 512 h 15.458 v -26.076 c -4.697,2.59 -9.915,4.349 -15.458,5.081 z"
           id="path1669" />
        <path
           style="fill:#f1b986"
           inkscape:connector-curvature="0"
           d="m 242.146,165.944 h -41.46 c -4.269,0 -7.729,-3.46 -7.729,-7.729 0,-4.269 3.46,-7.729 7.729,-7.729 h 41.46 c 4.269,0 7.729,3.46 7.729,7.729 0,4.269 -3.46,7.729 -7.729,7.729 z"
           id="path1671" />
        <path
           style="fill:#f1b986"
           inkscape:connector-curvature="0"
           d="m 256,220.951 c -4.269,0 -7.729,-3.46 -7.729,-7.729 0,-4.269 3.46,-7.729 7.729,-7.729 3.378,0 6.125,-2.747 6.125,-6.125 V 172.07 c 0,-11.902 9.683,-21.585 21.583,-21.585 h 27.605 c 4.269,0 7.729,3.46 7.729,7.729 0,4.269 -3.46,7.729 -7.729,7.729 h -27.605 c -3.378,0 -6.125,2.749 -6.125,6.126 v 27.297 c 0,11.902 -9.682,21.585 -21.583,21.585 z"
           id="path1673" />
        <path
           style="fill:#e2a770"
           inkscape:connector-curvature="0"
           d="m 277.583,199.367 v -3.975 c -5.139,-0.686 -10.294,-1.245 -15.458,-1.677 v 5.652 c 0,3.378 -2.748,6.125 -6.125,6.125 -4.269,0 -7.729,3.46 -7.729,7.729 0,4.269 3.46,7.729 7.729,7.729 11.901,0.001 21.583,-9.682 21.583,-21.583 z"
           id="path1675" />
        <path
           style="fill:#e2a770"
           inkscape:connector-curvature="0"
           d="m 299.828,150.486 -1.139,15.458 h 12.623 c 4.269,0 7.729,-3.46 7.729,-7.729 0,-4.269 -3.46,-7.729 -7.729,-7.729 z"
           id="path1677" />
        <g
           style="fill:#f9efda"
           id="g1685">
          <path
             inkscape:connector-curvature="0"
             d="m 287.694,250.628 c -0.352,0 -0.706,-0.024 -1.065,-0.073 -10.027,-1.381 -20.245,-2.081 -30.37,-2.081 h -0.519 c -10.127,0 -20.344,0.7 -30.368,2.081 -4.222,0.583 -8.13,-2.373 -8.712,-6.602 -0.583,-4.229 2.373,-8.129 6.602,-8.712 10.721,-1.477 21.649,-2.226 32.478,-2.226 h 0.519 c 10.828,0 21.756,0.749 32.479,2.226 4.229,0.583 7.185,4.483 6.602,8.712 -0.533,3.87 -3.846,6.675 -7.646,6.675 z"
             id="path1679" />
          <path
             inkscape:connector-curvature="0"
             d="m 264.132,274.589 h -16.264 c -4.269,0 -7.729,-3.46 -7.729,-7.729 0,-4.269 3.46,-7.729 7.729,-7.729 h 16.264 c 4.269,0 7.729,3.46 7.729,7.729 0,4.269 -3.46,7.729 -7.729,7.729 z"
             id="path1681" />
          <path
             inkscape:connector-curvature="0"
             d="m 268.928,357.372 25.943,-65.56 c 1.571,-3.969 -0.373,-8.461 -4.343,-10.031 -3.968,-1.57 -8.461,0.373 -10.031,4.343 L 256,348.03 231.598,286.365 c -1.446,-3.655 -5.362,-5.872 -9.169,-4.894 -4.604,1.182 -6.992,6.065 -5.3,10.341 l 25.943,65.56 11.559,10.43 c 0.778,0.702 1.96,0.702 2.737,0 z"
             id="path1683" />
        </g>
        <path
           style="fill:#f4e2c1"
           inkscape:connector-curvature="0"
           d="m 294.871,291.812 c 1.571,-3.969 -0.373,-8.461 -4.343,-10.031 -0.471,-0.186 -0.949,-0.323 -1.429,-0.412 l -10.451,9.43 -22.648,57.231 -10.73,-27.117 -12.251,11.053 10.053,25.405 11.559,10.43 c 0.778,0.702 1.96,0.702 2.737,0 l 11.559,-10.43 z"
           id="path1687" />
      </g>
      <g
         transform="matrix(0.77726115,0,0,0.77726115,2380.0653,517.68336)"
         id="g2306">
        <path
           style="fill:#c8ea73"
           inkscape:connector-curvature="0"
           d="m 256,287.419 c -70.43,0 -91.037,-34.371 -94.69,-83.968 l -6.928,-94.074 C 150.032,50.315 196.778,0 256,0 315.222,0 361.968,50.315 357.618,109.377 l -6.928,94.074 c -3.653,49.597 -24.26,83.968 -94.69,83.968 z"
           id="path2224" />
        <path
           style="fill:#b7e445"
           inkscape:connector-curvature="0"
           d="m 279.747,2.776 c 24.439,20.255 39.193,51.647 36.663,85.997 l -6.928,94.074 c -3.653,49.597 -24.26,83.968 -94.69,83.968 -11.716,0 -22.053,-0.952 -31.163,-2.766 14.413,14.783 37.168,23.369 72.371,23.369 70.43,0 91.037,-34.371 94.69,-83.968 l 6.928,-94.074 C 361.366,58.481 327.172,14.082 279.747,2.776 Z"
           id="path2226" />
        <path
           style="fill:#aad540"
           inkscape:connector-curvature="0"
           d="m 365.272,192.011 h -13.74 l 4.767,-64.724 71.512,-22.119 c 0.71,-0.219 1.358,0.479 1.086,1.171 l -22.716,57.796 c -6.61,16.817 -22.839,27.876 -40.909,27.876 z"
           id="path2228" />
        <path
           style="fill:#b7e445"
           inkscape:connector-curvature="0"
           d="m 146.728,192.011 h 13.74 l -4.767,-64.724 -71.512,-22.119 c -0.71,-0.219 -1.358,0.479 -1.086,1.171 l 22.716,57.796 c 6.61,16.817 22.839,27.876 40.909,27.876 z"
           id="path2230" />
        <path
           style="fill:#c8ea73"
           inkscape:connector-curvature="0"
           d="m 457.85,417.523 c 15.202,-13.08 23.945,-32.138 23.945,-52.193 v -0.004 c 0,-31.392 -21.462,-58.716 -51.962,-66.151 l -41.003,-9.996 -12.827,-13.857 c -10.431,-11.268 -22.27,-21.127 -35.213,-29.338 -12.19,25.634 -37.038,41.435 -84.791,41.435 -47.753,0 -72.602,-15.801 -84.791,-41.436 -12.943,8.211 -24.782,18.07 -35.213,29.338 l -12.827,13.856 c -13.086,3.19 -24.68,6.017 -41,9.995 -30.499,7.436 -51.965,34.76 -51.965,66.152 v 0.004 c 0,20.054 8.743,39.112 23.945,52.193 -14.928,9.633 -23.945,26.185 -23.945,43.951 v 49.44 c 0,0.6 0.487,1.087 1.087,1.087 h 449.418 c 0.6,0 1.087,-0.487 1.087,-1.087 v -49.44 c 0,-17.765 -9.017,-34.316 -23.945,-43.949 z"
           id="path2232" />
        <path
           style="fill:#b7e445"
           inkscape:connector-curvature="0"
           d="m 481.796,365.33 v -0.004 c 0,-31.392 -21.463,-58.716 -51.962,-66.151 l -8.719,-2.126 c 12.158,12.406 19.474,29.346 19.474,47.673 v 0.004 c 0,11.383 -2.817,22.445 -8.033,32.275 -6.195,11.675 -5.971,25.873 0.754,37.251 4.693,7.941 7.279,17.105 7.279,26.618 v 6.43 c 0,24.354 -19.743,44.097 -44.097,44.097 H 30.205 v 19.517 c 0,0.6 0.487,1.087 1.087,1.087 H 480.71 c 0.6,0 1.087,-0.487 1.087,-1.087 v -49.44 c 0,-17.766 -9.017,-34.318 -23.945,-43.951 15.2,-13.081 23.944,-32.139 23.944,-52.193 z"
           id="path2234" />
        <path
           style="fill:#fffbe4"
           inkscape:connector-curvature="0"
           d="m 240.27,218.325 4.812,12.065 h -25.755 l -10.782,-27.031 h 9.642 c 9.73,0 18.478,5.929 22.083,14.966 z"
           id="path2236" />
        <path
           style="fill:#fffbe4"
           inkscape:connector-curvature="0"
           d="m 271.723,218.325 -4.812,12.065 h 25.755 l 10.782,-27.031 h -9.642 c -9.731,0 -18.479,5.929 -22.083,14.966 z"
           id="path2238" />
        <path
           style="fill:#b7e445"
           inkscape:connector-curvature="0"
           d="m 256.463,359.171 c -13.076,0 -24.092,-6.773 -31.854,-19.588 -5.422,-8.951 -7.354,-17.892 -7.434,-18.269 -0.883,-4.175 1.785,-8.275 5.96,-9.158 4.171,-0.887 8.275,1.785 9.158,5.96 0.051,0.234 5.789,25.602 24.17,25.602 18.539,0 24.115,-25.346 24.169,-25.602 0.883,-4.175 4.984,-6.845 9.159,-5.96 4.174,0.883 6.843,4.983 5.96,9.158 -0.079,0.376 -2.012,9.318 -7.434,18.269 -7.763,12.814 -18.778,19.588 -31.854,19.588 z"
           id="path2240" />
        <path
           style="fill:#b7e445"
           inkscape:connector-curvature="0"
           d="M 263.726,417.523 V 512 h -15.453 v -94.477 c 0,-15.006 -12.208,-27.213 -27.213,-27.213 h -72.087 c -4.267,0 -7.726,-3.459 -7.726,-7.726 0,-4.267 3.459,-7.726 7.726,-7.726 h 72.087 c 14.433,0 27.215,7.204 34.94,18.205 7.725,-11.001 20.506,-18.205 34.94,-18.205 h 72.087 c 4.268,0 7.726,3.459 7.726,7.726 0,4.267 -3.459,7.726 -7.726,7.726 H 290.94 c -15.005,-10e-4 -27.214,12.207 -27.214,27.213 z M 119.2,408.638 c -4.267,0 -7.726,3.459 -7.726,7.726 V 512 h 15.453 v -95.636 c -0.001,-4.267 -3.46,-7.726 -7.727,-7.726 z m 273.6,0 c -4.268,0 -7.726,3.459 -7.726,7.726 V 512 h 15.453 v -95.636 c -10e-4,-4.267 -3.46,-7.726 -7.727,-7.726 z"
           id="path2242" />
        <path
           style="fill:#aad540"
           inkscape:connector-curvature="0"
           d="m 111.473,491.396 h 15.453 V 512 h -15.453 z"
           id="path2244" />
        <path
           style="fill:#aad540"
           inkscape:connector-curvature="0"
           d="M 396.491,491.396 H 385.073 V 512 h 15.453 v -20.786 c -1.329,0.12 -2.674,0.182 -4.035,0.182 z"
           id="path2246" />
        <path
           style="fill:#aad540"
           inkscape:connector-curvature="0"
           d="m 248.274,491.396 h 15.453 V 512 h -15.453 z"
           id="path2248" />
        <path
           style="fill:#b7e445"
           inkscape:connector-curvature="0"
           d="m 297.983,145.268 h -28.128 c -4.268,0 -7.726,-3.459 -7.726,-7.726 0,-4.267 3.459,-7.726 7.726,-7.726 h 28.128 c 6.563,0 12.734,-2.556 17.375,-7.197 l 2.669,-2.669 c 3.018,-3.017 7.909,-3.017 10.928,0 3.017,3.017 3.017,7.909 0,10.927 l -2.669,2.669 c -7.561,7.558 -17.612,11.722 -28.303,11.722 z"
           id="path2250" />
        <path
           style="fill:#aad540"
           inkscape:connector-curvature="0"
           d="m 318.027,119.949 -2.669,2.669 c -0.498,0.498 -1.013,0.971 -1.545,1.421 l -1.366,18.547 c 5.128,-1.984 9.833,-5.036 13.838,-9.041 l 2.669,-2.669 c 3.017,-3.017 3.017,-7.909 0,-10.927 -3.017,-3.017 -7.909,-3.017 -10.927,0 z"
           id="path2252" />
        <path
           style="fill:#b7e445"
           inkscape:connector-curvature="0"
           d="m 243.07,145.268 h -29.044 c -10.697,0 -20.754,-4.165 -28.318,-11.73 l -2.662,-2.662 c -3.018,-3.017 -3.018,-7.909 0,-10.927 3.017,-3.017 7.909,-3.017 10.927,0 l 2.662,2.662 c 4.645,4.645 10.822,7.204 17.391,7.204 h 29.044 c 4.267,0 7.726,3.459 7.726,7.726 0,4.267 -3.458,7.727 -7.726,7.727 z"
           id="path2254" />
        <path
           style="fill:#b7e445"
           inkscape:connector-curvature="0"
           d="m 283.272,103.602 h -54.544 c -9.779,0 -19.356,-3.957 -26.288,-10.859 -0.02,-0.02 -0.04,-0.039 -0.059,-0.058 -3.018,-3.017 -3.018,-7.909 0,-10.927 2.931,-2.931 7.631,-3.015 10.663,-0.252 0.091,0.082 0.18,0.167 0.266,0.254 4.06,4.06 9.68,6.389 15.417,6.389 h 54.544 c 5.822,0 11.296,-2.268 15.413,-6.385 3.017,-3.018 7.912,-3.021 10.93,-0.003 3.017,3.018 3.021,7.906 0.004,10.923 -7.044,7.043 -16.398,10.918 -26.346,10.918 z"
           id="path2256" />
        <path
           style="fill:#b7e445"
           inkscape:connector-curvature="0"
           d="m 312.771,248.319 c -1.977,0 -3.955,-0.755 -5.464,-2.263 l -3.2,-3.2 c -3.056,-3.056 -7.12,-4.739 -11.442,-4.739 h -73.338 c -4.317,0 -8.376,1.681 -11.429,4.734 l -3.206,3.206 c -3.017,3.017 -7.909,3.017 -10.927,0 -3.018,-3.017 -3.018,-7.909 0,-10.927 l 3.206,-3.206 c 5.971,-5.971 13.911,-9.26 22.356,-9.26 h 73.338 c 8.449,0 16.393,3.29 22.368,9.265 l 3.201,3.201 c 3.017,3.017 3.017,7.909 0,10.927 -1.509,1.507 -3.487,2.262 -5.463,2.262 z m -29.915,7.825 c 0,-4.267 -3.459,-7.726 -7.726,-7.726 h -38.26 c -4.267,0 -7.726,3.459 -7.726,7.726 0,4.267 3.459,7.726 7.726,7.726 h 38.26 c 4.267,10e-4 7.726,-3.459 7.726,-7.726 z"
           id="path2258" />
        <path
           style="fill:#aad540"
           inkscape:connector-curvature="0"
           d="m 282.856,256.144 c 0,-2.54 -1.225,-4.793 -3.117,-6.201 -8.555,6.38 -19.351,11.122 -32.899,13.927 h 28.289 c 4.268,10e-4 7.727,-3.459 7.727,-7.726 z"
           id="path2260" />
        <path
           style="fill:#aad540"
           inkscape:connector-curvature="0"
           d="m 315.033,231.929 c -4.106,-4.106 -9.143,-6.945 -14.635,-8.318 -2.336,5.243 -5.174,10.095 -8.597,14.506 h 0.864 c 4.322,0 8.385,1.683 11.442,4.739 l 3.2,3.2 c 1.509,1.509 3.487,2.263 5.464,2.263 1.977,0 3.955,-0.755 5.464,-2.263 3.017,-3.017 3.017,-7.909 0,-10.927 z"
           id="path2262" />
        <g
           style="fill:#b7e445"
           id="g2272">
          <path
             inkscape:connector-curvature="0"
             d="m 133.24,321.102 c 1.509,1.509 3.486,2.263 5.463,2.263 1.977,0 3.955,-0.755 5.463,-2.263 3.018,-3.017 3.018,-7.909 0,-10.927 l -20.997,-20.997 c -5.97,1.455 -11.63,2.835 -17.57,4.283 z"
             id="path2264" />
          <path
             inkscape:connector-curvature="0"
             d="m 378.76,321.102 c -1.509,1.509 -3.486,2.263 -5.463,2.263 -1.977,0 -3.955,-0.755 -5.463,-2.263 -3.018,-3.017 -3.018,-7.909 0,-10.927 l 20.997,-20.997 c 5.97,1.455 11.63,2.835 17.57,4.283 z"
             id="path2266" />
          <path
             inkscape:connector-curvature="0"
             d="m 238.178,185.622 c -1.977,0 -3.955,-0.755 -5.463,-2.263 -3.018,-3.017 -3.018,-7.909 0,-10.927 l 3.929,-3.929 c 3.017,-3.017 7.909,-3.017 10.927,0 3.018,3.017 3.018,7.909 0,10.927 l -3.929,3.929 c -1.509,1.508 -3.487,2.263 -5.464,2.263 z"
             id="path2268" />
          <path
             inkscape:connector-curvature="0"
             d="m 273.822,185.622 c -1.977,0 -3.955,-0.754 -5.463,-2.263 l -3.93,-3.929 c -3.018,-3.017 -3.018,-7.909 -10e-4,-10.927 3.018,-3.018 7.91,-3.018 10.927,-10e-4 l 3.93,3.929 c 3.018,3.017 3.018,7.909 10e-4,10.927 -1.509,1.509 -3.487,2.264 -5.464,2.264 z"
             id="path2270" />
        </g>
      </g>
      <g
         transform="matrix(0.89163913,0,0,0.89163913,1841.4377,673.42995)"
         id="g2562">
        <path
           inkscape:connector-curvature="0"
           style="fill:#ffd0b8"
           d="m 399.141,363.747 h -19.313 c -4.707,0 -8.52,-3.815 -8.52,-8.52 0,-4.705 3.814,-8.52 8.52,-8.52 h 19.313 c 4.707,0 8.52,3.815 8.52,8.52 0,4.705 -3.814,8.52 -8.52,8.52 z"
           id="path2411" />
        <rect
           x="395.73801"
           y="250.71201"
           style="fill:#bc6d1e"
           width="11.36"
           height="261.28799"
           id="rect2413" />
        <path
           inkscape:connector-curvature="0"
           style="fill:#ffd0b8"
           d="m 410.501,371.7 c -4.707,0 -8.52,-3.815 -8.52,-8.52 v -13.632 c 0,-4.705 3.814,-8.52 8.52,-8.52 4.706,0 8.52,3.815 8.52,8.52 v 13.632 c 0,4.705 -3.814,8.52 -8.52,8.52 z"
           id="path2415" />
        <path
           inkscape:connector-curvature="0"
           style="fill:#bc6d1e"
           d="m 408.8,275.705 h -14.775 c -3.138,0 -5.68,-2.544 -5.68,-5.68 0,-3.136 2.542,-5.68 5.68,-5.68 H 408.8 c 3.138,0 5.68,2.544 5.68,5.68 0,3.136 -2.542,5.68 -5.68,5.68 z"
           id="path2417" />
        <path
           inkscape:connector-curvature="0"
           style="fill:#ffd0b8"
           d="m 132.124,363.747 h -19.313 c -4.707,0 -8.52,-3.815 -8.52,-8.52 0,-4.705 3.814,-8.52 8.52,-8.52 h 19.313 c 4.707,0 8.52,3.815 8.52,8.52 0.001,4.705 -3.813,8.52 -8.52,8.52 z"
           id="path2419" />
        <path
           inkscape:connector-curvature="0"
           style="fill:#f7b348"
           d="M 104.579,377.868 81.05,256.392 121.045,373.483 c 1.525,4.463 -0.858,9.318 -5.321,10.842 -4.463,1.524 -9.318,-0.858 -10.842,-5.321 -0.124,-0.36 -0.23,-0.772 -0.303,-1.136 z"
           id="path2421" />
        <path
           inkscape:connector-curvature="0"
           style="fill:#9376e2"
           d="m 322.06,110.525 -0.091,0.909 c -20.437,-2.204 -42.692,-3.408 -65.97,-3.408 -8.373,0 -16.62,0.148 -24.686,0.454 -14.371,0.545 -28.196,1.545 -41.284,2.954 L 189.938,110.525 256,0 Z"
           id="path2423" />
        <path
           inkscape:connector-curvature="0"
           style="fill:#745dc6"
           d="m 256,0 -23.289,108.026 -1.397,0.454 c -14.371,0.545 -28.196,1.545 -41.284,2.954 l -0.091,-0.909 z"
           id="path2425" />
        <path
           inkscape:connector-curvature="0"
           style="fill:#9376e2"
           d="m 235.131,366.144 c 1.216,-0.511 76.001,-32.457 81.59,-92.655 l 6.214,36.694 10.19,60.221 c 0,0 0,0.011 0.011,0.011 L 357.107,512 H 154.893 l 23.97,-141.584 10.202,-60.221 7.895,-46.623 c 1.295,12.996 6.282,35.558 25.004,46.43 27.186,15.79 25.005,44.282 13.167,56.142 z"
           id="path2427" />
        <polyline
           style="fill:#745dc6"
           points="233.937,285.942 215.481,512 154.893,512 195.054,274.829 205.166,229.041 "
           id="polyline2429" />
        <g
           id="g2435">
          <path
             inkscape:connector-curvature="0"
             style="fill:#9376e2"
             d="m 437.379,155.728 c 0,18.279 -35.626,34.274 -88.781,42.976 1.227,-3.726 1.943,-7.259 1.943,-10.122 0,-11.917 -7.634,-21.585 -17.041,-21.585 -1.386,0 -2.715,0.227 -3.999,0.625 -1.204,-10.02 -3.556,-19.528 -6.896,-28.287 -20.324,-2.147 -42.874,-3.34 -66.606,-3.34 -23.732,0 -46.282,1.193 -66.606,3.34 -3.34,8.759 -5.692,18.267 -6.896,28.287 -1.284,-0.398 -2.613,-0.625 -3.999,-0.625 -9.406,0 -17.041,9.668 -17.041,21.585 0,2.863 0.716,6.396 1.943,10.122 -53.155,-8.702 -88.781,-24.697 -88.781,-42.976 0,-21.187 47.85,-39.295 115.41,-46.566 20.437,-2.204 42.692,-3.408 65.97,-3.408 12.349,0 24.402,0.341 36.046,0.988 0.011,0 0.011,0 0.011,0 10.315,0.568 20.324,1.386 29.912,2.42 67.562,7.27 115.411,25.379 115.411,46.566 z"
             id="path2431" />
          <path
             inkscape:connector-curvature="0"
             style="fill:#9376e2"
             d="m 379.828,341.595 v 48.85 c 0,0 -32.036,4.215 -46.691,-20.028 -0.011,0 -0.011,-0.011 -0.011,-0.011 l -10.19,-60.221 c 0,0 4.112,6.566 11.281,13.769 0,0 0,0.011 0.011,0.023 10.121,10.165 26.321,21.605 45.6,17.618 z"
             id="path2433" />
        </g>
        <path
           inkscape:connector-curvature="0"
           style="fill:#ffd0b8"
           d="m 350.541,188.582 c 0,2.863 -0.716,6.396 -1.943,10.122 -3.84,11.803 -12.667,25.504 -19.426,25.504 l -1.147,0.727 C 315.438,213.313 308.86,196.352 295.762,191.99 275.313,185.174 256,209.031 256,209.031 c 0,0 -19.313,-23.857 -39.761,-17.041 -4.499,1.5 -8.225,4.476 -11.701,8.225 -6.623,7.157 -12.292,17.086 -20.562,24.72 l -1.147,-0.727 c -6.759,0 -15.586,-13.701 -19.426,-25.504 -1.227,-3.726 -1.943,-7.259 -1.943,-10.122 0,-11.917 7.634,-21.585 17.041,-21.585 1.386,0 2.715,0.227 3.999,0.625 1.204,-10.02 3.556,-19.528 6.896,-28.287 20.324,-2.147 42.874,-3.34 66.606,-3.34 23.732,0 46.282,1.193 66.606,3.34 1.784,4.669 3.283,9.543 4.465,14.598 1.056,4.431 1.863,9.009 2.431,13.689 1.284,-0.398 2.613,-0.625 3.999,-0.625 9.404,0 17.038,9.668 17.038,21.585 z"
           id="path2437" />
        <path
           inkscape:connector-curvature="0"
           style="fill:#e2b39f"
           d="m 256,217.551 c -4.707,0 -8.52,-3.815 -8.52,-8.52 v -21.585 c 0,-4.705 3.814,-8.52 8.52,-8.52 4.706,0 8.52,3.815 8.52,8.52 v 21.585 c 0,4.705 -3.813,8.52 -8.52,8.52 z"
           id="path2439" />
        <path
           inkscape:connector-curvature="0"
           style="fill:#e6e6e6"
           d="m 316.725,273.494 c -5.589,60.199 -80.375,92.144 -81.59,92.655 11.837,-11.86 14.019,-40.352 -13.167,-56.143 -18.324,-10.633 -23.493,-32.468 -24.913,-45.578 -0.034,-0.284 -0.068,-0.568 -0.091,-0.852 -0.102,-1.068 -0.182,-2.068 -0.25,-2.988 -0.273,-4.022 -0.17,-6.6 -0.159,-6.805 2.749,0.295 5.623,0.454 8.611,0.454 23.755,0 40.568,-25.663 47.418,-38.307 2.249,-4.147 3.419,-6.896 3.419,-6.896 0,0 1.17,2.749 3.419,6.896 6.85,12.644 23.664,38.307 47.418,38.307 3.204,0 6.271,-0.182 9.202,-0.523 0.557,3.579 0.886,7.066 0.977,10.474 0.092,3.183 -0.01,6.284 -0.294,9.306 z"
           id="path2441" />
        <path
           inkscape:connector-curvature="0"
           style="fill:#745dc6"
           d="m 256,135.995 c -23.732,0 -46.282,1.193 -66.606,3.34 -3.34,8.759 -5.692,18.267 -6.896,28.287 -1.284,-0.398 -2.613,-0.625 -3.999,-0.625 -9.406,0 -17.041,9.668 -17.041,21.585 0,2.863 0.716,6.396 1.943,10.122 -53.155,-8.702 -88.781,-24.697 -88.781,-42.976 0,-21.187 47.85,-39.295 115.41,-46.566 20.437,-2.204 42.692,-3.408 65.97,-3.408 12.349,0 24.402,0.341 36.046,0.988 -0.863,0.045 -46.168,2.272 -36.046,29.253 z"
           id="path2443" />
        <g
           id="g2449">
          <path
             inkscape:connector-curvature="0"
             style="fill:#cccccc"
             d="m 317.02,264.19 c -0.329,0.045 -0.648,0.091 -0.977,0.125 -2.931,0.341 -5.998,0.523 -9.202,0.523 -31.525,0 -50.838,-45.203 -50.838,-45.203 0,0 -2.185,-8.434 -0.003,-10.604 6.85,12.644 27.087,45.207 50.841,45.207 3.204,0 6.271,-0.182 9.202,-0.523 0.557,3.579 0.886,7.067 0.977,10.475 z"
             id="path2445" />
          <path
             inkscape:connector-curvature="0"
             style="fill:#cccccc"
             d="m 256.003,219.634 c 0,0 -19.313,45.203 -50.838,45.203 -2.806,0 -5.521,-0.136 -8.111,-0.409 -0.034,-0.284 -0.068,-0.568 -0.091,-0.852 -0.568,-5.692 -0.42,-9.543 -0.409,-9.793 2.749,0.295 5.623,0.454 8.611,0.454 23.755,0 33.987,-35.422 50.834,-45.207 2.182,2.17 0.004,10.604 0.004,10.604 z"
             id="path2447" />
        </g>
        <path
           inkscape:connector-curvature="0"
           style="fill:#745dc6"
           d="m 189.065,310.195 22.065,41.057 -32.267,19.164 -0.045,-0.011 c -14.643,24.254 -46.691,20.04 -46.691,20.04 v -48.85 c 32.945,6.816 56.938,-31.4 56.938,-31.4 z"
           id="path2451" />
        <path
           inkscape:connector-curvature="0"
           style="fill:#e2b39f"
           d="m 327.07,153.933 c -36.228,-4.68 -134.893,-12.235 -122.533,46.282 -6.623,7.157 -12.292,17.086 -20.562,24.72 l -1.147,-0.727 c -6.759,0 -15.586,-13.701 -19.426,-25.504 -1.227,-3.726 -1.943,-7.259 -1.943,-10.122 0,-11.917 7.634,-21.585 17.041,-21.585 1.386,0 2.715,0.227 3.999,0.625 1.204,-10.02 3.556,-19.528 6.896,-28.287 20.324,-2.147 42.874,-3.34 66.606,-3.34 23.732,0 46.282,1.193 66.606,3.34 1.782,4.669 3.282,9.543 4.463,14.598 z"
           id="path2453" />
        <path
           inkscape:connector-curvature="0"
           style="fill:#745dc6"
           d="m 379.828,390.444 c 0,0 -32.036,4.215 -46.691,-20.028 -0.011,0 -0.011,-0.011 -0.011,-0.011 l -10.19,-60.221 c 0,0 4.112,6.566 11.281,13.769 0,0 0,0.011 0.011,0.023 0.567,1.407 24.277,59.731 45.6,66.468 z"
           id="path2455" />
        <g
           id="g2461">
          <path
             inkscape:connector-curvature="0"
             style="fill:#4d4d4d"
             d="m 239.416,169.467 c -3.568,-0.189 -6.049,-0.327 -8.337,-0.315 l -6.119,0.005 -6.113,0.011 c -2.286,-0.011 -4.765,0.122 -8.343,0.3 0.214,-3.6 2.261,-6.508 4.922,-8.563 2.694,-2.04 6.12,-3.113 9.534,-3.106 3.413,0.006 6.837,1.077 9.527,3.121 2.659,2.055 4.706,4.957 4.929,8.547 z"
             id="path2457" />
          <path
             inkscape:connector-curvature="0"
             style="fill:#4d4d4d"
             d="m 301.496,169.467 c -3.568,-0.189 -6.048,-0.327 -8.337,-0.315 l -6.119,0.005 -6.113,0.011 c -2.286,-0.011 -4.765,0.122 -8.343,0.3 0.214,-3.6 2.261,-6.508 4.922,-8.563 2.694,-2.04 6.12,-3.113 9.534,-3.106 3.413,0.006 6.837,1.077 9.527,3.121 2.659,2.055 4.705,4.957 4.929,8.547 z"
             id="path2459" />
        </g>
        <g
           id="g2467">
          <path
             inkscape:connector-curvature="0"
             style="fill:#e6e6e6"
             d="m 316.039,253.711 c -2.931,0.341 -5.998,0.523 -9.202,0.523 -31.525,0 -50.838,-45.203 -50.838,-45.203 0,0 19.313,-23.857 39.761,-17.041 13.098,4.362 19.676,21.323 32.263,32.945 7.066,6.521 16.018,11.36 29.083,11.36 0.001,0 -15.131,14.474 -41.067,17.416 z"
             id="path2463" />
          <path
             inkscape:connector-curvature="0"
             style="fill:#e6e6e6"
             d="m 256,209.031 c 0,0 -19.313,45.203 -50.838,45.203 -2.988,0 -5.862,-0.159 -8.611,-0.454 -26.299,-2.783 -41.658,-17.484 -41.658,-17.484 13.064,0 22.016,-4.84 29.083,-11.36 12.587,-11.622 19.165,-28.583 32.263,-32.945 20.448,-6.817 39.761,17.04 39.761,17.04 z"
             id="path2465" />
        </g>
        <path
           inkscape:connector-curvature="0"
           style="fill:#ffd0b8"
           d="m 99.224,373.974 c -3.683,0 -7.079,-2.406 -8.17,-6.119 l -5.68,-19.313 c -1.328,-4.515 1.255,-9.251 5.77,-10.579 4.516,-1.329 9.251,1.256 10.579,5.77 l 5.68,19.313 c 1.328,4.515 -1.255,9.251 -5.77,10.579 -0.804,0.236 -1.614,0.349 -2.409,0.349 z"
           id="path2469" />
        <circle
           style="fill:#d84161"
           cx="401.418"
           cy="236.511"
           r="19.313"
           id="circle2471" />
        <path
           inkscape:connector-curvature="0"
           style="fill:#c1385c"
           d="m 393.46,236.511 c 0,-8.69 5.738,-16.035 13.632,-18.461 -1.796,-0.552 -3.703,-0.852 -5.68,-0.852 -10.667,0 -19.313,8.645 -19.313,19.313 0,10.668 8.645,19.313 19.313,19.313 1.977,0 3.884,-0.3 5.68,-0.852 -7.894,-2.426 -13.632,-9.771 -13.632,-18.461 z"
           id="path2473" />
        <path
           inkscape:connector-curvature="0"
           style="fill:#cccccc"
           d="m 235.134,366.149 c 11.837,-11.86 14.019,-40.352 -13.167,-56.143 -18.324,-10.633 -23.493,-32.468 -24.913,-45.578 -0.034,-0.284 -0.068,-0.568 -0.091,-0.852 -0.102,-1.068 -0.182,-2.068 -0.25,-2.988 l 2.488,-2.011 22.766,1.874 c 0,0 -2.318,19.71 13.587,35.615 15.905,15.905 23.687,45.976 -0.42,70.083 z"
           id="path2475" />
        <g
           id="g2477" />
        <g
           id="g2479" />
        <g
           id="g2481" />
        <g
           id="g2483" />
        <g
           id="g2485" />
        <g
           id="g2487" />
        <g
           id="g2489" />
        <g
           id="g2491" />
        <g
           id="g2493" />
        <g
           id="g2495" />
        <g
           id="g2497" />
        <g
           id="g2499" />
        <g
           id="g2501" />
        <g
           id="g2503" />
        <g
           id="g2505" />
      </g>
    </g>
  </g>
</svg>
